<?xml version="1.0" encoding="utf-8"?>
<!-- Generator: Adobe Illustrator 24.2.0, SVG Export Plug-In . SVG Version: 6.00 Build 0)  -->
<svg version="1.1" id="Layer_1" xmlns="http://www.w3.org/2000/svg" xmlns:xlink="http://www.w3.org/1999/xlink" x="0px" y="0px"
	 viewBox="0 0 403.36 214.32" style="enable-background:new 0 0 403.36 214.32;" xml:space="preserve">
<style type="text/css">
	.st0{fill:#4177F6;}
</style>
<g>
	<g id="Group_1442" transform="translate(311.341 0.5)">
		<g id="Path_1332">
			<path class="st0" d="M48.07,58.88c-0.16,0-0.3-0.07-0.4-0.2L28.13,33.22L16.71,48.19l12.68-6.46c0.25-0.12,0.55-0.03,0.67,0.22
				c0.13,0.25,0.03,0.55-0.22,0.67L15.2,50.08c-0.21,0.11-0.46,0.05-0.61-0.13s-0.16-0.44-0.01-0.62L27.74,32.1
				c0.09-0.12,0.24-0.2,0.4-0.2c0,0,0,0,0,0c0.16,0,0.3,0.07,0.4,0.2l19.54,25.45l42.42-57l-89.4,4.3l18.81,19.97l46.88-14.46
				c0.25-0.07,0.51,0.05,0.61,0.29c0.1,0.24,0,0.51-0.22,0.63L34.91,28.56c-0.24,0.13-0.55,0.04-0.68-0.2
				c-0.13-0.24-0.04-0.55,0.2-0.68l27.69-14.84L19.89,25.87c-0.18,0.06-0.38,0-0.51-0.14L-0.39,4.74c-0.13-0.14-0.17-0.35-0.1-0.53
				c0.07-0.18,0.25-0.3,0.44-0.31l91.54-4.4c0.22-0.01,0.38,0.09,0.47,0.26c0.09,0.17,0.08,0.38-0.04,0.53L48.47,58.68
				C48.38,58.8,48.26,58.88,48.07,58.88z"/>
		</g>
		<g id="Line_1">
			<path class="st0" d="M14.97,50.13c-0.03,0-0.06,0-0.09-0.01c-0.27-0.05-0.45-0.31-0.4-0.58l3.74-19.95
				c0.05-0.27,0.32-0.45,0.58-0.4c0.27,0.05,0.45,0.31,0.4,0.58l-3.74,19.95C15.42,49.96,15.21,50.13,14.97,50.13z"/>
		</g>
	</g>
	<g id="Path_1333">
		<g>
			<path class="st0" d="M86.53,214.32c-0.02,0-0.05,0-0.07-0.01c-3.31-0.48-6.63-1.12-9.85-1.91c-0.27-0.07-0.43-0.34-0.37-0.6
				c0.07-0.27,0.34-0.43,0.6-0.37c3.2,0.78,6.48,1.42,9.76,1.89c0.27,0.04,0.46,0.29,0.42,0.57
				C86.98,214.14,86.77,214.32,86.53,214.32z M67.14,209.59c-0.05,0-0.11-0.01-0.17-0.03c-3.15-1.1-6.28-2.37-9.3-3.78
				c-0.25-0.12-0.36-0.41-0.24-0.66c0.12-0.25,0.41-0.36,0.66-0.24c2.99,1.39,6.09,2.65,9.21,3.74c0.26,0.09,0.4,0.38,0.31,0.64
				C67.54,209.46,67.34,209.59,67.14,209.59z M49.04,201.17c-0.09,0-0.17-0.02-0.25-0.07c-2.87-1.7-5.69-3.56-8.38-5.54
				c-0.22-0.16-0.27-0.48-0.11-0.7c0.17-0.22,0.48-0.27,0.7-0.11c2.66,1.96,5.46,3.8,8.3,5.48c0.24,0.14,0.32,0.45,0.18,0.68
				C49.38,201.08,49.21,201.17,49.04,201.17z M32.94,189.35c-0.12,0-0.24-0.04-0.33-0.13c-2.48-2.23-4.88-4.61-7.14-7.07
				c-0.19-0.2-0.17-0.52,0.03-0.71c0.2-0.19,0.52-0.17,0.71,0.03c2.23,2.44,4.61,4.79,7.07,7c0.21,0.18,0.22,0.5,0.04,0.71
				C33.22,189.3,33.08,189.35,32.94,189.35z M19.46,174.63c-0.15,0-0.3-0.07-0.4-0.2c-2.01-2.68-3.9-5.48-5.62-8.33
				c-0.14-0.24-0.07-0.54,0.17-0.69c0.24-0.14,0.54-0.07,0.69,0.17c1.71,2.82,3.58,5.6,5.56,8.25c0.17,0.22,0.12,0.53-0.1,0.7
				C19.67,174.59,19.57,174.63,19.46,174.63z M9.14,157.53c-0.19,0-0.37-0.11-0.45-0.29c-1.44-3.04-2.72-6.17-3.82-9.3
				c-0.09-0.26,0.05-0.55,0.31-0.64c0.26-0.09,0.55,0.05,0.64,0.31c1.08,3.09,2.35,6.19,3.78,9.2c0.12,0.25,0.01,0.55-0.24,0.67
				C9.29,157.52,9.21,157.53,9.14,157.53z M2.57,138.68c-0.23,0-0.43-0.16-0.49-0.39c-0.75-3.3-1.31-6.63-1.66-9.92
				c-0.03-0.27,0.17-0.52,0.44-0.55c0.27-0.03,0.52,0.17,0.55,0.44c0.34,3.24,0.9,6.54,1.64,9.8c0.06,0.27-0.11,0.54-0.38,0.6
				C2.65,138.68,2.61,138.68,2.57,138.68z M0.5,118.84c0,0-0.01,0-0.01,0c-0.28-0.01-0.49-0.24-0.49-0.51
				c0.08-3.39,0.39-6.75,0.92-10.01c0.04-0.27,0.31-0.46,0.57-0.41c0.27,0.04,0.46,0.3,0.41,0.57c-0.53,3.21-0.83,6.54-0.91,9.87
				C0.99,118.63,0.77,118.84,0.5,118.84z M3.76,99.2c-0.05,0-0.1-0.01-0.15-0.02c-0.26-0.08-0.41-0.37-0.32-0.63
				c1.04-3.21,2.33-6.34,3.84-9.3C7.25,89,7.55,88.9,7.8,89.02c0.25,0.13,0.34,0.43,0.22,0.67c-1.49,2.92-2.76,6-3.78,9.16
				C4.17,99.06,3.97,99.2,3.76,99.2z M12.81,81.47c-0.1,0-0.21-0.03-0.3-0.1c-0.22-0.16-0.27-0.48-0.11-0.7
				c1.96-2.68,4.18-5.24,6.58-7.61c0.2-0.19,0.51-0.19,0.71,0c0.19,0.2,0.19,0.51,0,0.71c-2.37,2.34-4.55,4.85-6.48,7.49
				C13.12,81.4,12.96,81.47,12.81,81.47z M230.16,69.47l-0.79,0c-0.28,0-0.5-0.23-0.5-0.5c0-0.28,0.22-0.5,0.5-0.5c0,0,0,0,0,0
				l0.78,0c3.03,0,6.12-0.07,9.19-0.2c0.25-0.04,0.51,0.2,0.52,0.48c0.01,0.28-0.2,0.51-0.48,0.52
				C236.3,69.4,233.2,69.47,230.16,69.47z M219.38,69.19c-0.01,0-0.02,0-0.03,0c-3.36-0.18-6.73-0.45-9.99-0.81
				c-0.27-0.03-0.47-0.28-0.44-0.55c0.03-0.27,0.28-0.47,0.55-0.44c3.25,0.35,6.59,0.62,9.94,0.8c0.28,0.01,0.49,0.25,0.47,0.53
				C219.86,68.98,219.64,69.19,219.38,69.19z M249.35,68.62c-0.26,0-0.47-0.2-0.5-0.46c-0.02-0.27,0.18-0.52,0.45-0.54
				c3.26-0.28,6.6-0.65,9.92-1.08c0.28-0.03,0.52,0.16,0.56,0.43c0.04,0.27-0.16,0.52-0.43,0.56c-3.34,0.43-6.69,0.79-9.96,1.08
				C249.38,68.62,249.36,68.62,249.35,68.62z M26.95,67.45c-0.15,0-0.31-0.07-0.4-0.21c-0.16-0.22-0.11-0.54,0.11-0.7
				c2.65-1.93,5.5-3.74,8.5-5.37c0.24-0.13,0.54-0.04,0.68,0.2c0.13,0.24,0.04,0.55-0.2,0.68c-2.95,1.61-5.78,3.39-8.39,5.29
				C27.16,67.42,27.05,67.45,26.95,67.45z M199.51,67.01c-0.03,0-0.06,0-0.08-0.01c-3.33-0.56-6.64-1.22-9.83-1.97
				c-0.27-0.06-0.44-0.33-0.37-0.6c0.06-0.27,0.33-0.43,0.6-0.37c3.17,0.74,6.46,1.4,9.77,1.96c0.27,0.05,0.46,0.3,0.41,0.58
				C199.96,66.84,199.75,67.01,199.51,67.01z M269.18,66.06c-0.24,0-0.45-0.17-0.49-0.42c-0.05-0.27,0.14-0.53,0.41-0.58
				c3.24-0.55,6.54-1.17,9.81-1.85c0.26-0.05,0.54,0.12,0.59,0.39c0.06,0.27-0.12,0.54-0.39,0.59c-3.28,0.68-6.59,1.3-9.84,1.85
				C269.23,66.06,269.21,66.06,269.18,66.06z M180.06,62.43c-0.05,0-0.1-0.01-0.15-0.02c-3.25-1.01-6.43-2.14-9.46-3.35
				c-0.26-0.1-0.38-0.39-0.28-0.65c0.1-0.26,0.39-0.38,0.65-0.28c3,1.2,6.16,2.32,9.39,3.32c0.26,0.08,0.41,0.36,0.33,0.63
				C180.47,62.29,180.28,62.43,180.06,62.43z M288.76,62.01c-0.23,0-0.43-0.15-0.49-0.38c-0.07-0.27,0.1-0.54,0.37-0.6
				c3.18-0.78,6.43-1.63,9.66-2.53c0.27-0.08,0.54,0.08,0.62,0.35c0.07,0.27-0.08,0.54-0.35,0.62c-3.24,0.9-6.5,1.76-9.69,2.53
				C288.84,62.01,288.8,62.01,288.76,62.01z M44.44,57.89c-0.2,0-0.39-0.12-0.46-0.31c-0.1-0.26,0.02-0.55,0.28-0.65
				c3.02-1.21,6.21-2.3,9.5-3.24c0.27-0.08,0.54,0.08,0.62,0.34c0.08,0.27-0.08,0.54-0.34,0.62c-3.25,0.93-6.42,2.01-9.41,3.21
				C44.57,57.88,44.5,57.89,44.44,57.89z M308.02,56.64c-0.21,0-0.41-0.14-0.48-0.35c-0.08-0.26,0.06-0.54,0.33-0.63
				c3.13-0.98,6.32-2.03,9.48-3.13c0.26-0.09,0.55,0.05,0.64,0.31s-0.05,0.55-0.31,0.64c-3.17,1.1-6.37,2.15-9.51,3.13
				C308.12,56.63,308.07,56.64,308.02,56.64z M161.53,54.97c-0.08,0-0.15-0.02-0.23-0.05c-3.07-1.57-6-3.26-8.7-5.03
				c-0.23-0.15-0.29-0.46-0.14-0.69c0.15-0.23,0.46-0.29,0.69-0.14c2.67,1.75,5.56,3.43,8.6,4.98c0.25,0.13,0.34,0.43,0.22,0.67
				C161.89,54.87,161.71,54.97,161.53,54.97z M63.61,52.35c-0.23,0-0.44-0.17-0.49-0.4c-0.05-0.27,0.13-0.53,0.4-0.59
				c3.19-0.62,6.52-1.13,9.91-1.53c0.28-0.03,0.52,0.16,0.56,0.44c0.03,0.27-0.17,0.52-0.44,0.55c-3.36,0.39-6.67,0.91-9.84,1.52
				C63.67,52.34,63.64,52.35,63.61,52.35z M147.41,52.07c-1.32,0-2.67-0.01-4.04-0.02c-0.28,0-0.5-0.23-0.5-0.51
				c0-0.28,0.25-0.49,0.5-0.49c3.48,0.04,6.8,0.03,9.99-0.03c0.28,0.01,0.5,0.22,0.51,0.49c0,0.28-0.21,0.5-0.49,0.51
				C151.44,52.05,149.45,52.07,147.41,52.07z M133.38,51.82c-0.01,0-0.01,0-0.02,0c-3.23-0.11-6.6-0.26-10-0.44
				c-0.28-0.02-0.49-0.25-0.47-0.53c0.01-0.28,0.25-0.49,0.53-0.47c3.39,0.18,6.75,0.33,9.98,0.44c0.28,0.01,0.49,0.24,0.48,0.52
				C133.87,51.61,133.64,51.82,133.38,51.82z M163.37,51.68c-0.26,0-0.49-0.21-0.5-0.47c-0.01-0.28,0.2-0.51,0.47-0.53
				c3.46-0.18,6.81-0.43,9.95-0.74c0.27-0.02,0.52,0.17,0.55,0.45c0.03,0.27-0.17,0.52-0.45,0.55c-3.15,0.31-6.51,0.56-9.99,0.74
				C163.38,51.68,163.37,51.68,163.37,51.68z M113.41,50.77c-0.01,0-0.02,0-0.04,0c-1.64-0.12-3.31-0.24-5-0.37
				c-1.68-0.13-3.34-0.24-4.97-0.33c-0.28-0.02-0.49-0.25-0.47-0.53s0.25-0.49,0.53-0.47c1.64,0.09,3.31,0.2,5,0.33
				c1.69,0.13,3.35,0.25,4.99,0.37c0.28,0.02,0.48,0.26,0.46,0.53C113.89,50.57,113.67,50.77,113.41,50.77z M83.44,49.99
				c-0.26,0-0.49-0.21-0.5-0.47c-0.01-0.28,0.2-0.51,0.47-0.53c2.94-0.15,5.99-0.23,9.05-0.23l0.97,0c0.28,0,0.5,0.23,0.5,0.5
				c0,0.28-0.22,0.5-0.5,0.5c0,0,0,0,0,0l-0.97,0c-3.04,0-6.07,0.08-9,0.23C83.46,49.99,83.45,49.99,83.44,49.99z M183.24,49.66
				c-0.24,0-0.45-0.17-0.49-0.42c-0.04-0.27,0.14-0.53,0.41-0.57c3.52-0.57,6.8-1.26,9.73-2.03c0.27-0.07,0.54,0.09,0.61,0.36
				c0.07,0.27-0.09,0.54-0.36,0.61c-2.97,0.78-6.27,1.47-9.83,2.05C183.3,49.66,183.27,49.66,183.24,49.66z M202.46,44.35
				c-0.19,0-0.37-0.11-0.46-0.29c-0.11-0.25,0-0.55,0.25-0.66c3.47-1.59,6.19-3.42,8.07-5.44c0.19-0.2,0.5-0.21,0.71-0.03
				c0.2,0.19,0.21,0.5,0.03,0.71c-1.97,2.12-4.79,4.02-8.38,5.66C202.6,44.34,202.53,44.35,202.46,44.35z M144.91,43.94
				c-0.12,0-0.23-0.04-0.33-0.12c-2.69-2.35-5.03-4.81-6.96-7.29c-0.17-0.22-0.13-0.53,0.09-0.7c0.22-0.17,0.53-0.13,0.7,0.09
				c1.89,2.44,4.18,4.84,6.82,7.15c0.21,0.18,0.23,0.5,0.05,0.71C145.19,43.88,145.05,43.94,144.91,43.94z M213.91,29.71
				c-0.25,0-0.47-0.19-0.5-0.44c-0.33-2.78-1.73-5.68-4.18-8.61c-0.18-0.21-0.15-0.53,0.06-0.7c0.21-0.18,0.53-0.15,0.7,0.06
				c2.57,3.08,4.05,6.15,4.4,9.13c0.03,0.27-0.16,0.52-0.44,0.56C213.95,29.71,213.93,29.71,213.91,29.71z M133.06,28.09
				c-0.2,0-0.39-0.12-0.47-0.32c-0.94-2.51-1.42-4.98-1.42-7.32c0-0.93,0.08-1.85,0.22-2.74c0.05-0.27,0.31-0.45,0.58-0.41
				c0.27,0.05,0.46,0.3,0.41,0.58c-0.14,0.83-0.21,1.7-0.21,2.57c0,2.23,0.46,4.57,1.35,6.97c0.1,0.26-0.04,0.55-0.29,0.64
				C133.17,28.08,133.12,28.09,133.06,28.09z M202.21,14.17c-0.1,0-0.2-0.03-0.29-0.09c-2.56-1.81-5.43-3.5-8.55-5.02
				c-0.25-0.12-0.35-0.42-0.23-0.67s0.42-0.35,0.67-0.23c3.16,1.54,6.09,3.26,8.69,5.11c0.23,0.16,0.28,0.47,0.12,0.7
				C202.52,14.1,202.36,14.17,202.21,14.17z M136.56,9.65c-0.13,0-0.26-0.05-0.36-0.15c-0.19-0.2-0.19-0.52,0.01-0.71
				c2.22-2.13,5.13-3.9,8.67-5.24c0.26-0.1,0.55,0.03,0.65,0.29c0.1,0.26-0.03,0.55-0.29,0.65c-3.41,1.3-6.21,2.99-8.33,5.03
				C136.81,9.6,136.69,9.65,136.56,9.65z M184.32,5.35c-0.05,0-0.1-0.01-0.16-0.03c-3.16-1.04-6.39-1.88-9.61-2.49
				c-0.27-0.05-0.45-0.31-0.4-0.58c0.05-0.27,0.32-0.45,0.58-0.4c3.26,0.62,6.54,1.47,9.74,2.52c0.26,0.09,0.4,0.37,0.32,0.63
				C184.73,5.22,184.53,5.35,184.32,5.35z M154.74,2.12c-0.25,0-0.46-0.18-0.49-0.43c-0.04-0.27,0.15-0.53,0.43-0.56
				c3.21-0.44,6.63-0.58,10.06-0.44c0.28,0.01,0.49,0.24,0.48,0.52c-0.01,0.28-0.27,0.49-0.52,0.48c-3.38-0.14-6.74,0-9.89,0.43
				C154.79,2.12,154.77,2.12,154.74,2.12z"/>
		</g>
	</g>
</g>
</svg>
