<?xml version="1.0" encoding="utf-8"?>
<!-- Generator: Adobe Illustrator 24.2.0, SVG Export Plug-In . SVG Version: 6.00 Build 0)  -->
<svg version="1.1" id="Layer_1" xmlns="http://www.w3.org/2000/svg" xmlns:xlink="http://www.w3.org/1999/xlink" x="0px" y="0px"
	 viewBox="0 0 285 285" style="enable-background:new 0 0 285 285;" xml:space="preserve">
<style type="text/css">
	.st0{clip-path:url(#SVGID_2_);}
	.st1{fill:url(#Path_17_1_);}
	.st2{fill:url(#Path_18_1_);}
	.st3{fill:url(#Path_19_1_);}
	.st4{fill:url(#Path_20_1_);}
	.st5{fill:url(#Path_21_1_);}
	.st6{fill:url(#Path_23_1_);}
	.st7{fill:url(#Path_24_1_);}
	.st8{fill:url(#Path_26_1_);}
</style>
<g>
	<defs>
		<rect id="SVGID_1_" width="285" height="285"/>
	</defs>
	<clipPath id="SVGID_2_">
		<use xlink:href="#SVGID_1_"  style="overflow:visible;"/>
	</clipPath>
	<g id="Mask_Group_41" transform="translate(0 0)" class="st0">
		<g id="Group_1457" transform="translate(273.192 -273.529) rotate(90)">
			
				<linearGradient id="Path_17_1_" gradientUnits="userSpaceOnUse" x1="594.204" y1="878.1796" x2="593.337" y2="876.1696" gradientTransform="matrix(0 -86.071 -242.0599 0 213009.8594 51381.9531)">
				<stop  offset="0" style="stop-color:#1E5BEB"/>
				<stop  offset="1" style="stop-color:#4177F6"/>
			</linearGradient>
			<path id="Path_17" class="st1" d="M336.91,86.07C258.67,61.73,176.03,54.89,94.85,66.05C141.97,25.36,201.61,2.05,263.83,0
				C306.24,6.47,337.41,43.18,336.91,86.07z"/>
			
				<linearGradient id="Path_18_1_" gradientUnits="userSpaceOnUse" x1="589.1646" y1="878.2366" x2="588.2977" y2="876.2266" gradientTransform="matrix(0 -393.5617 -317.586 0 279519.9063 233105.5)">
				<stop  offset="0" style="stop-color:#1E5BEB"/>
				<stop  offset="1" style="stop-color:#4177F6"/>
			</linearGradient>
			<path id="Path_18" class="st2" d="M440.9,260.32c-10.19,87.83-24.59,212.9-94.15,276.48c-70.89,19.58-146.68,9.96-210.44-26.7
				c124.55-92.28,223.07-215.25,285.97-356.93c11.24,7.78,21.81,16.48,31.62,26C447.23,205.8,442.88,232.95,440.9,260.32z"/>
			
				<linearGradient id="Path_19_1_" gradientUnits="userSpaceOnUse" x1="589.4451" y1="877.8889" x2="588.5781" y2="875.8788" gradientTransform="matrix(0 -321.45 -144.739 0 127657.125 190569.5313)">
				<stop  offset="0" style="stop-color:#1E5BEB"/>
				<stop  offset="1" style="stop-color:#4177F6"/>
			</linearGradient>
			<path id="Path_19" class="st3" d="M472.51,198.49c35.77,42.8,58.02,95.25,63.94,150.71c-21.82,74.88-74.44,136.96-144.74,170.74
				c50.59-72.37,62.89-178.82,72.02-257.16C466.54,237.84,469,215,472.51,198.49z"/>
			
				<linearGradient id="Path_20_1_" gradientUnits="userSpaceOnUse" x1="592.0732" y1="876.8235" x2="591.2062" y2="874.8135" gradientTransform="matrix(0 -129.4113 -66.4002 0 58802.0352 77131.5938)">
				<stop  offset="0" style="stop-color:#1E5BEB"/>
				<stop  offset="1" style="stop-color:#4177F6"/>
			</linearGradient>
			<path id="Path_20" class="st4" d="M523.1,161.25c15.79,35.12,23.94,73.21,23.89,111.72c0,4.92,0,9.49-0.35,14.05
				c-12.57-42.79-35.22-81.95-66.05-114.18c3.21-6.93,9.21-12.16,16.51-14.4C505.86,156.71,514.93,157.69,523.1,161.25z"/>
			
				<linearGradient id="Path_21_1_" gradientUnits="userSpaceOnUse" x1="589.9971" y1="878.2648" x2="589.1301" y2="876.2548" gradientTransform="matrix(0 -247.2474 -329.8986 0 290219.5938 146638.7656)">
				<stop  offset="0" style="stop-color:#1E5BEB"/>
				<stop  offset="1" style="stop-color:#4177F6"/>
			</linearGradient>
			<path id="Path_21" class="st5" d="M6.32,330.94c-0.4-1.13-0.64-2.31-0.7-3.51c-0.7-2.81-1.05-5.62-1.76-8.78
				c0-0.7-0.35-1.4-0.35-2.46c-1.05-7.38-2.11-15.11-2.46-22.84c-0.36-4.57-0.36-9.13-0.71-14.05c0-2.11-0.35-4.57-0.35-6.67v-3.86
				c-0.06-3.28,0.06-6.57,0.35-9.84c0.24-6.47,0.82-12.92,1.76-19.32c0.35-2.46,0.7-4.92,1.05-7.03c1.05-7.38,2.46-14.76,3.87-21.78
				c3.6-15.78,8.66-31.18,15.11-46.02c11.12-25.63,26.05-49.43,44.27-70.61c87.58-17.63,178.2-12.92,263.48,13.7
				c-18.27,29.16-73.77,52.7-137.01,79.4c-31.62,13.7-64.29,27.4-97.67,43.91C53.09,250.74,20.93,286.85,6.32,330.94z"/>
			
				<linearGradient id="Path_23_1_" gradientUnits="userSpaceOnUse" x1="589.2313" y1="878.2576" x2="588.3643" y2="876.2476" gradientTransform="matrix(0 -380.471 -383.281 0 337219.375 225338.6563)">
				<stop  offset="0" style="stop-color:#1E5BEB"/>
				<stop  offset="1" style="stop-color:#4177F6"/>
			</linearGradient>
			<path id="Path_23" class="st6" d="M115.58,496.76c-10.27-7.4-20.01-15.5-29.16-24.24c-5.38-4.8-10.43-9.96-15.11-15.46
				c-4.22-4.92-8.43-9.49-12.3-14.4c-4.14-5.06-8.01-10.34-11.59-15.81c-1.4-2.31-2.93-4.53-4.57-6.67
				c-5.62-8.74-10.78-17.77-15.45-27.05c-1.4-2.81-2.81-5.97-4.22-9.13s-2.81-5.97-3.86-9.14c2.4-22.9,9.59-45.04,21.08-64.99
				c15.48-25.3,38.09-45.47,64.99-57.97c33.02-16.16,65.34-30.21,96.61-43.21c71.67-30.21,129.98-55.16,150.01-92.4
				c17.52,6.77,34.44,15,50.59,24.59C340.16,282.84,241.1,405.66,115.58,496.76z"/>
			
				<linearGradient id="Path_24_1_" gradientUnits="userSpaceOnUse" x1="592.6448" y1="877.4659" x2="591.7778" y2="875.4559" gradientTransform="matrix(0 -114.878 -111.366 0 98217.9063 68396.4297)">
				<stop  offset="0" style="stop-color:#1E5BEB"/>
				<stop  offset="1" style="stop-color:#4177F6"/>
			</linearGradient>
			<path id="Path_24" class="st7" d="M323.21,4.22c40.25,7.33,78.32,23.66,111.37,47.78c-6.32,22.84-14.05,45.32-22.48,67.1
				c-16.86-9.83-34.48-18.29-52.7-25.29C364.36,59.6,350.54,25.37,323.21,4.22z"/>
			
				<linearGradient id="Path_26_1_" gradientUnits="userSpaceOnUse" x1="593.9355" y1="877.2144" x2="593.0685" y2="875.2044" gradientTransform="matrix(0 -89.585 -78.342 0 69262.5469 53524.3906)">
				<stop  offset="0" style="stop-color:#1E5BEB"/>
				<stop  offset="1" style="stop-color:#4177F6"/>
			</linearGradient>
			<path id="Path_26" class="st8" d="M431.41,131.39c10.19-25.3,17.57-47.08,22.48-63.94c2.81,2.46,5.27,4.92,8.08,7.38
				c18.6,17.74,34.68,37.96,47.78,60.07c-6.26-0.48-12.56,0.11-18.62,1.76c-11,3.49-20.44,10.69-26.7,20.38
				C453.93,147.86,442.9,139.3,431.41,131.39z"/>
		</g>
	</g>
</g>
</svg>
