<svg xmlns="http://www.w3.org/2000/svg" width="81.183" height="22" viewBox="0 0 81.183 22">
    <defs>
        <style>
            .prefix__cls-1{fill:#fff}
        </style>
    </defs>
    <g id="prefix__Group_48" transform="translate(-17 -11.61)">
        <path id="prefix__Path_16" d="M35.949 11.61H19.971A2.964 2.964 0 0 0 17 14.571v15.988a2.964 2.964 0 0 0 2.971 2.961h7.164l-4.879-4.879c-.159-.149-.318-.3-.467-.467-.129-.149-.258-.288-.378-.437s-.248-.318-.358-.487a2.411 2.411 0 0 0-.139-.2 7.591 7.591 0 0 1-.467-.825c-.05-.089-.079-.189-.129-.278s-.079-.189-.119-.278a7.643 7.643 0 0 1-.407-1.332l-.01.01a.5.5 0 0 1-.02-.119 1.186 1.186 0 0 1-.05-.258c0-.03-.01-.05-.01-.07a8.37 8.37 0 0 1-.109-1.322 8.6 8.6 0 0 1 .676-3.309 8.159 8.159 0 0 1 1.351-2.146c.139-.149.268-.308.417-.447l.447-.417.01-.01a7.372 7.372 0 0 1 1.113-.8 6.881 6.881 0 0 1 1.242-.616 6.545 6.545 0 0 1 .666-.229q.343-.1.686-.179l.5-.089a2.461 2.461 0 0 1 .268-.03c.219-.02.437-.04.666-.05h.01a7.883 7.883 0 0 1 1.808.129 8.3 8.3 0 0 1 2.216.735h-.02c.1.05.2.1.308.159a10.333 10.333 0 0 1 .894.556c.2.149.388.308.586.487V16.3l.258.229a1.021 1.021 0 0 1 .139.149h.01l5.056 5.067v-7.154a2.946 2.946 0 0 0-2.951-2.981zm-4.262 3.49h-.02c.1.05.2.1.308.159a2.677 2.677 0 0 0-.288-.159z" class="prefix__cls-1"/>
        <path id="prefix__Path_17" d="M29.8 17.295a15.8 15.8 0 0 0-6.846-.566 7.7 7.7 0 0 1 4.78-1.868 2.434 2.434 0 0 1 2.066 2.434z" class="prefix__cls-1" transform="translate(-.038 -.021)"/>
        <path id="prefix__Path_18" d="M32.745 22.251c-.288 2.484-.7 6.022-2.663 7.82a7.784 7.784 0 0 1-5.952-.755 25.381 25.381 0 0 0 8.089-10.1 7.034 7.034 0 0 1 .894.735 13.484 13.484 0 0 0-.368 2.3z" class="prefix__cls-1" transform="translate(-.045 -.048)"/>
        <path id="prefix__Path_19" d="M33.685 20.51a7.964 7.964 0 0 1 1.808 4.263A7.769 7.769 0 0 1 31.4 29.6c1.431-2.047 1.779-5.058 2.037-7.274.08-.703.149-1.349.248-1.816z" class="prefix__cls-1" transform="translate(-.091 -.056)"/>
        <path id="prefix__Path_20" d="M35.132 19.449a7.684 7.684 0 0 1 .676 3.16c0 .139 0 .268-.01.4a7.89 7.89 0 0 0-1.868-3.229.761.761 0 0 1 .467-.407 1.241 1.241 0 0 1 .735.076z" class="prefix__cls-1" transform="translate(-.107 -.049)"/>
        <path id="prefix__Path_21" d="M20.429 24.236a.353.353 0 0 1-.02-.1c-.02-.079-.03-.159-.05-.248 0-.02-.01-.04-.01-.07-.03-.209-.06-.427-.07-.646-.01-.129-.01-.258-.02-.4 0-.06-.01-.129-.01-.189v-.109a2.6 2.6 0 0 1 .01-.278 5.076 5.076 0 0 1 .05-.547l.03-.2c.03-.209.07-.417.109-.616a7.392 7.392 0 0 1 .427-1.3 7.86 7.86 0 0 1 1.252-2 15.045 15.045 0 0 1 7.453.388c-.517.825-2.087 1.491-3.875 2.246-.894.388-1.818.775-2.762 1.242a4.764 4.764 0 0 0-2.514 2.827z" class="prefix__cls-1" transform="translate(-.021 -.036)"/>
        <path id="prefix__Path_22" d="M22.95 16.718a7.7 7.7 0 0 1 4.78-1.868 2.44 2.44 0 0 1 2.07 2.435 15.968 15.968 0 0 0-6.85-.567z" class="prefix__cls-1" transform="translate(-.038 -.02)"/>
        <path id="prefix__Path_23" d="M23.523 28.932a7.737 7.737 0 0 1-.825-.686 4.438 4.438 0 0 1-.427-.437c-.119-.139-.238-.268-.348-.407a5.188 5.188 0 0 1-.328-.447 2.128 2.128 0 0 0-.129-.189 8.406 8.406 0 0 1-.437-.766c-.04-.079-.079-.169-.119-.258s-.079-.169-.109-.258a4.657 4.657 0 0 1 .6-1.838 4.259 4.259 0 0 1 1.838-1.64c.934-.457 1.848-.855 2.733-1.222 2.027-.855 3.677-1.56 4.243-2.613a9.511 9.511 0 0 1 1.431.7 24.75 24.75 0 0 1-8.123 10.061z" class="prefix__cls-1" transform="translate(-.024 -.041)"/>
        <path id="prefix__Path_24" d="M29.45 14.98a7.676 7.676 0 0 1 3.15 1.351c-.179.646-.4 1.282-.636 1.9a10.27 10.27 0 0 0-1.491-.715 2.711 2.711 0 0 0-1.023-2.536z" class="prefix__cls-1" transform="translate(-.079 -.021)"/>
        <path id="prefix__Path_25" d="M32.745 22.251c-.288 2.484-.7 6.022-2.663 7.82a7.784 7.784 0 0 1-5.952-.755 25.381 25.381 0 0 0 8.089-10.1 7.034 7.034 0 0 1 .894.735 13.484 13.484 0 0 0-.368 2.3z" class="prefix__cls-1" transform="translate(-.045 -.048)"/>
        <path id="prefix__Path_26" d="M32.53 18.588c.288-.715.5-1.332.636-1.808.079.07.149.139.229.209a7.946 7.946 0 0 1 1.351 1.7 1.558 1.558 0 0 0-.527.05 1.405 1.405 0 0 0-.755.576 10.291 10.291 0 0 0-.934-.727z" class="prefix__cls-1" transform="translate(-.098 -.033)"/>
        <path id="prefix__Path_27" d="M33.685 20.51a7.964 7.964 0 0 1 1.808 4.263A7.769 7.769 0 0 1 31.4 29.6c1.431-2.047 1.779-5.058 2.037-7.274.08-.703.149-1.349.248-1.816z" class="prefix__cls-1" transform="translate(-.091 -.056)"/>
        <path id="prefix__Path_28" d="M35.808 22.609c0 .139 0 .268-.01.4a7.89 7.89 0 0 0-1.868-3.229.761.761 0 0 1 .467-.407 1.1 1.1 0 0 1 .735.079 7.561 7.561 0 0 1 .676 3.157z" class="prefix__cls-1" transform="translate(-.107 -.049)"/>
        <path id="prefix__Path_29" d="M31.52 15.66l.268.149c-.089-.06-.189-.1-.278-.149z" class="prefix__cls-1" transform="translate(-.092 -.026)"/>
        <path id="prefix__Path_30" d="M64.655 18.643v4.581a.356.356 0 0 0 .358.358h2.425a.356.356 0 0 1 .358.358v1.65a.356.356 0 0 1-.358.358h-2.425a.356.356 0 0 0-.358.358v4.6a.356.356 0 0 0 .358.358h2.842a.371.371 0 0 1 .368.358v1.65a.367.367 0 0 1-.368.368h-5.217a.356.356 0 0 1-.358-.358V16.288a.367.367 0 0 1 .368-.368h5.207a.367.367 0 0 1 .368.368v1.65a.365.365 0 0 1-.368.358h-2.842a.348.348 0 0 0-.358.347z" class="prefix__cls-1" transform="translate(-.286 -.027)"/>
        <path id="prefix__Path_31" d="M49.489 11.75h-6.131a.356.356 0 0 0-.358.358v21.135a.356.356 0 0 0 .358.358h6.131A2.721 2.721 0 0 0 52.2 30.9V14.463a2.729 2.729 0 0 0-2.711-2.713zm-.229 18.2a.908.908 0 0 1-.9.9h-2.081a.356.356 0 0 1-.358-.358V14.87a.356.356 0 0 1 .358-.358h2.087a.9.9 0 0 1 .9.894v.01z" class="prefix__cls-1" transform="translate(-.164 -.001)"/>
        <path id="prefix__Path_32" d="M76.729 11.75H70.6a.356.356 0 0 0-.358.358v21.135a.356.356 0 0 0 .358.358h2.2a.356.356 0 0 0 .358-.358V25.97a.356.356 0 0 1 .358-.358h3.22a2.71 2.71 0 0 0 2.705-2.712v-8.447a2.708 2.708 0 0 0-2.712-2.703zM76.5 21.955a.908.908 0 0 1-.9.9h-2.081a.371.371 0 0 1-.368-.358V14.88a.356.356 0 0 1 .358-.358h2.077a.9.9 0 0 1 .9.894v6.538z" class="prefix__cls-1" transform="translate(-.337 -.001)"/>
        <path id="prefix__Path_33" d="M56.975 18.643v4.581a.356.356 0 0 0 .358.358h2.425a.356.356 0 0 1 .358.358v1.65a.356.356 0 0 1-.358.358h-2.425a.356.356 0 0 0-.358.358v4.6a.356.356 0 0 0 .358.358h2.852a.371.371 0 0 1 .368.358v1.65a.365.365 0 0 1-.358.368h-5.217a.356.356 0 0 1-.358-.358V16.288a.365.365 0 0 1 .358-.368h5.217a.365.365 0 0 1 .368.358v1.65a.359.359 0 0 1-.368.358h-2.852a.371.371 0 0 0-.368.357z" class="prefix__cls-1" transform="translate(-.238 -.027)"/>
        <path id="prefix__Path_34" d="M87.341 26.244a2.7 2.7 0 0 0 1.332-2.325v-5.3a2.708 2.708 0 0 0-2.713-2.7h-4.392a.356.356 0 0 0-.358.358V33.27a.371.371 0 0 0 .358.368h1.65a.365.365 0 0 0 .358-.368v-6.638h1.481l1.343 6.717a.352.352 0 0 0 .348.288h1.64a.359.359 0 0 0 .358-.368.169.169 0 0 0-.01-.07zM86.3 23.353a.908.908 0 0 1-.9.9h-1.467a.356.356 0 0 1-.358-.358v-5.242a.371.371 0 0 1 .358-.368h1.461a.908.908 0 0 1 .9.9z" class="prefix__cls-1" transform="translate(-.406 -.027)"/>
        <path id="prefix__Path_35" d="M95.956 15.92h-2.683a2.714 2.714 0 0 0-2.713 2.7v12.3a2.714 2.714 0 0 0 2.7 2.713h2.683a2.708 2.708 0 0 0 2.7-2.713v-12.3a2.685 2.685 0 0 0-2.687-2.7zm.338 14.438a.908.908 0 0 1-.9.9h-1.56a.908.908 0 0 1-.9-.9V19.189a.908.908 0 0 1 .9-.9h1.56a.908.908 0 0 1 .9.9z" class="prefix__cls-1" transform="translate(-.465 -.027)"/>
    </g>
</svg>
