<svg xmlns="http://www.w3.org/2000/svg" width="19.277" height="20.55" viewBox="0 0 19.277 20.55">
    <path id="prefix__Path_1311" d="M968.83 541.85a8.432 8.432 0 0 0 0-2.95l1.2-1.24a1.178 1.178 0 0 0 .17-1.42l-1.15-2a1.216 1.216 0 0 0-1.32-.57l-1.68.42a8.206 8.206 0 0 0-2.55-1.47l-.47-1.66a1.191 1.191 0 0 0-1.15-.86h-2.31a1.2 1.2 0 0 0-1.15.86l-.47 1.66a8.242 8.242 0 0 0-2.54 1.47l-1.69-.42a1.2 1.2 0 0 0-1.32.57l-1.15 2a1.178 1.178 0 0 0 .17 1.42l1.2 1.24a8.95 8.95 0 0 0-.13 1.48 7.961 7.961 0 0 0 .13 1.47l-1.2 1.24a1.178 1.178 0 0 0-.17 1.42l1.16 2a1.2 1.2 0 0 0 1.32.57l1.68-.42a8.242 8.242 0 0 0 2.54 1.47l.47 1.66a1.191 1.191 0 0 0 1.15.86h2.31a1.2 1.2 0 0 0 1.15-.86l.47-1.66a8.408 8.408 0 0 0 2.55-1.47l1.68.42a1.2 1.2 0 0 0 1.32-.57l1.15-2a1.178 1.178 0 0 0-.17-1.42zm-8.1 4.46a5.935 5.935 0 1 1 5.93-5.93 5.939 5.939 0 0 1-5.93 5.93z" data-name="Path 1311" opacity="0.65" transform="translate(-951.087 -530.1)"/>
</svg>
