<?xml version="1.0" encoding="utf-8"?>
<!-- Generator: Adobe Illustrator 24.2.0, SVG Export Plug-In . SVG Version: 6.00 Build 0)  -->
<svg version="1.1" id="Layer_1" xmlns="http://www.w3.org/2000/svg" xmlns:xlink="http://www.w3.org/1999/xlink" x="0px" y="0px"
	 viewBox="0 0 330 330" style="enable-background:new 0 0 330 330;" xml:space="preserve">
<style type="text/css">
	.st0{clip-path:url(#SVGID_2_);}
	.st1{fill:url(#Path_17_1_);}
	.st2{fill:url(#Path_18_1_);}
	.st3{fill:url(#Path_19_1_);}
	.st4{fill:url(#Path_20_1_);}
	.st5{fill:url(#Path_21_1_);}
	.st6{fill:url(#Path_23_1_);}
	.st7{fill:url(#Path_24_1_);}
	.st8{fill:url(#Path_26_1_);}
</style>
<g>
	<defs>
		<rect id="SVGID_1_" width="330" height="330"/>
	</defs>
	<clipPath id="SVGID_2_">
		<use xlink:href="#SVGID_1_"  style="overflow:visible;"/>
	</clipPath>
	<g id="Mask_Group_40" transform="translate(330 330) rotate(180)" class="st0">
		<g id="Group_1456" transform="translate(316.328 -316.718) rotate(90)">
			
				<linearGradient id="Path_17_1_" gradientUnits="userSpaceOnUse" x1="182.5628" y1="-157.8795" x2="181.6958" y2="-159.8895" gradientTransform="matrix(0 99.662 280.2764 0 44756.8711 -17918.7383)">
				<stop  offset="0" style="stop-color:#1E5BEB"/>
				<stop  offset="1" style="stop-color:#4177F6"/>
			</linearGradient>
			<path id="Path_17" class="st1" d="M390.1,99.66c-90.59-28.19-186.28-36.1-280.27-23.19C164.39,29.36,233.45,2.37,305.49,0
				C354.31,7.32,390.51,49.63,390.1,99.66z"/>
			
				<linearGradient id="Path_18_1_" gradientUnits="userSpaceOnUse" x1="181.7802" y1="-157.8529" x2="180.9133" y2="-159.8629" gradientTransform="matrix(0 455.7028 367.731 0 58747.0938 -81410.2656)">
				<stop  offset="0" style="stop-color:#1E5BEB"/>
				<stop  offset="1" style="stop-color:#4177F6"/>
			</linearGradient>
			<path id="Path_18" class="st2" d="M510.51,301.42c-11.8,101.7-28.48,246.51-109.02,320.14
				c-82.09,22.67-169.84,11.54-243.66-30.91c144.22-106.85,258.3-249.24,331.12-413.29c13.01,9.01,25.25,19.08,36.61,30.1
				C517.85,238.29,512.81,269.73,510.51,301.42z"/>
			
				<linearGradient id="Path_19_1_" gradientUnits="userSpaceOnUse" x1="181.8654" y1="-157.8254" x2="180.9984" y2="-159.8354" gradientTransform="matrix(0 372.206 167.594 0 27136.5039 -66426.5078)">
				<stop  offset="0" style="stop-color:#1E5BEB"/>
				<stop  offset="1" style="stop-color:#4177F6"/>
			</linearGradient>
			<path id="Path_19" class="st3" d="M547.12,229.83c41.42,49.55,67.18,110.29,74.03,174.51c-25.26,86.7-86.19,158.58-167.59,197.7
				c58.58-83.8,72.81-207.05,83.39-297.76C540.21,275.39,543.05,248.95,547.12,229.83z"/>
			
				<linearGradient id="Path_20_1_" gradientUnits="userSpaceOnUse" x1="182.1981" y1="-157.4543" x2="181.3311" y2="-159.4642" gradientTransform="matrix(0 149.8434 76.8822 0 12777.9307 -26709.9121)">
				<stop  offset="0" style="stop-color:#1E5BEB"/>
				<stop  offset="1" style="stop-color:#4177F6"/>
			</linearGradient>
			<path id="Path_20" class="st4" d="M605.7,186.71c18.28,40.67,27.71,84.76,27.66,129.36c0,5.7,0,10.98-0.41,16.27
				c-14.56-49.55-40.78-94.88-76.47-132.2c3.66-8.13,10.58-13.83,19.12-16.68C585.73,181.46,596.23,182.6,605.7,186.71z"/>
			
				<linearGradient id="Path_21_1_" gradientUnits="userSpaceOnUse" x1="181.9121" y1="-157.8711" x2="181.0451" y2="-159.8811" gradientTransform="matrix(0 286.2861 381.9858 0 60861.7852 -51194.8281)">
				<stop  offset="0" style="stop-color:#1E5BEB"/>
				<stop  offset="1" style="stop-color:#4177F6"/>
			</linearGradient>
			<path id="Path_21" class="st5" d="M7.32,383.19c-0.47-1.31-0.74-2.68-0.81-4.07c-0.81-3.25-1.22-6.51-2.03-10.17
				c0-0.81-0.41-1.63-0.41-2.85c-1.22-8.54-2.44-17.49-2.85-26.44c-0.41-5.29-0.41-10.58-0.81-16.27c0-2.44-0.41-5.29-0.41-7.73
				v-4.48c-0.07-3.8,0.07-7.6,0.41-11.39c0.27-7.49,0.95-14.96,2.03-22.37c0.41-2.85,0.81-5.7,1.22-8.14
				c1.22-8.54,2.85-17.08,4.48-25.22c4.17-18.27,10.02-36.11,17.49-53.29c12.88-29.68,30.16-57.24,51.26-81.76
				C178.3,88.6,283.22,94.06,381.97,124.88c-21.15,33.76-85.42,61.02-158.64,91.93c-36.61,15.86-74.44,31.73-113.08,50.85
				C61.47,290.33,24.23,332.14,7.32,383.19z"/>
			
				<linearGradient id="Path_23_1_" gradientUnits="userSpaceOnUse" x1="181.7697" y1="-157.828" x2="180.9027" y2="-159.838" gradientTransform="matrix(0 440.545 443.8 0 70738.7344 -78742.3984)">
				<stop  offset="0" style="stop-color:#1E5BEB"/>
				<stop  offset="1" style="stop-color:#4177F6"/>
			</linearGradient>
			<path id="Path_23" class="st6" d="M133.83,575.19c-11.89-8.56-23.17-17.94-33.76-28.07c-6.1-5.7-12.2-11.39-17.49-17.9
				c-4.88-5.7-9.76-10.98-14.24-16.68c-4.8-5.86-9.28-11.96-13.43-18.3c-1.62-2.67-3.39-5.25-5.29-7.73
				c-6.51-10.12-12.49-20.58-17.9-31.32c-1.63-3.25-3.25-6.92-4.88-10.58s-3.25-6.92-4.47-10.58c2.78-26.52,11.1-52.15,24.41-75.26
				c17.93-29.3,44.11-52.65,75.25-67.12c38.24-18.71,75.66-34.98,111.86-50.03c82.98-34.98,150.51-63.86,173.7-106.98
				c20.29,7.84,39.88,17.36,58.58,28.48C393.87,327.5,279.17,469.71,133.83,575.19z"/>
			
				<linearGradient id="Path_24_1_" gradientUnits="userSpaceOnUse" x1="182.2534" y1="-157.5787" x2="181.3864" y2="-159.5887" gradientTransform="matrix(0 133.022 128.95 0 20896.4629 -23879.4492)">
				<stop  offset="0" style="stop-color:#1E5BEB"/>
				<stop  offset="1" style="stop-color:#4177F6"/>
			</linearGradient>
			<path id="Path_24" class="st7" d="M374.24,4.88c46.6,8.49,90.69,27.4,128.95,55.32c-7.32,26.44-16.27,52.47-26.03,77.7
				c-19.52-11.39-39.92-21.18-61.02-29.29C421.9,69.01,405.89,29.37,374.24,4.88z"/>
			
				<linearGradient id="Path_26_1_" gradientUnits="userSpaceOnUse" x1="182.5391" y1="-157.6496" x2="181.6721" y2="-159.6596" gradientTransform="matrix(0 103.727 90.712 0 14925.7578 -18567.5586)">
				<stop  offset="0" style="stop-color:#1E5BEB"/>
				<stop  offset="1" style="stop-color:#4177F6"/>
			</linearGradient>
			<path id="Path_26" class="st8" d="M499.53,152.14c11.8-29.29,20.34-54.51,26.03-74.03c3.25,2.85,6.1,5.69,9.36,8.54
				c21.54,20.55,40.15,43.95,55.32,69.56c-7.25-0.56-14.54,0.13-21.56,2.03c-12.73,4.04-23.66,12.38-30.92,23.59
				C525.6,171.21,512.83,161.29,499.53,152.14z"/>
		</g>
	</g>
</g>
</svg>
