<?xml version="1.0" standalone="no"?>
<!DOCTYPE svg PUBLIC "-//W3C//DTD SVG 1.1//EN" "http://www.w3.org/Graphics/SVG/1.1/DTD/svg11.dtd" >
<svg xmlns="http://www.w3.org/2000/svg">
<metadata>Generated by IcoMoon</metadata>
<defs>
<font id="Betconstruct-icons" horiz-adv-x="1024">
<font-face units-per-em="1024" ascent="960" descent="-64" />
<missing-glyph horiz-adv-x="1024" />
<glyph unicode="&#x20;" horiz-adv-x="512" d="" />
<glyph unicode="&#xe900;" glyph-name="arrow_drop_down" d="M1024-64l-512 512-512-512z" />
<glyph unicode="&#xe901;" glyph-name="arrow_drop_top" d="M0 960l512-512 512 512z" />
<glyph unicode="&#xe902;" glyph-name="description" d="M307.199 243.199h409.6v-102.4h-409.6zM307.199 448h409.6v-102.4h-409.6zM614.399 960h-409.6c-56.484-0.174-102.226-45.917-102.4-102.383v-819.218c0 0 0-0.001 0-0.001 0-56.374 45.554-102.108 101.861-102.398h614.94c56.484 0.174 102.226 45.917 102.4 102.383v614.417zM819.199 38.4h-614.4v819.201h358.401v-256h256z" />
<glyph unicode="&#xe903;" glyph-name="circle-check" d="M874.042 810.035c-92.654 92.656-220.656 149.965-362.042 149.965-282.77 0-512-229.23-512-512s229.23-512 512-512c141.387 0 269.388 57.309 362.042 149.965v0c92.652 92.653 149.958 220.652 149.958 362.035s-57.306 269.381-149.958 362.035v0zM222.369 158.361c-74.119 74.122-119.962 176.519-119.962 289.623 0 226.216 183.384 409.6 409.6 409.6s409.6-183.384 409.6-409.6c0-113.104-45.843-215.501-119.962-289.624v0c-74.119-74.097-176.501-119.925-289.587-119.925-113.137 0-215.561 45.87-289.689 120.027l-0.001 0.001zM768.724 562.944l-295.629-295.629c-10.285-10.288-24.495-16.651-40.192-16.651s-29.907 6.363-40.192 16.651v0l-119.859 119.296c-10.983 10.401-17.818 25.087-17.818 41.37 0 31.444 25.491 56.935 56.935 56.935 15.162 0 28.94-5.927 39.143-15.59l-0.026 0.024 81.613-81.613 256 256c10.401 10.983 25.087 17.818 41.37 17.818 31.444 0 56.935-25.491 56.935-56.935 0-15.162-5.927-28.94-15.59-39.143l0.024 0.026-2.253-2.253z" />
<glyph unicode="&#xe904;" glyph-name="icon-light" d="M787.030 447.936c0.001-0.253 0.001-0.553 0.001-0.853 0-151.942-123.173-275.115-275.115-275.115s-275.115 123.173-275.115 275.115c0 151.821 122.978 274.919 274.753 275.114h0.019c0.127 0 0.277 0 0.428 0 151.625 0 274.592-122.698 275.028-274.22v-0.042zM511.915 792.768c0 0 0 0 0 0-24.759 0-44.837 20.047-44.885 44.795v77.573c0 24.813 20.115 44.928 44.928 44.928s44.928-20.115 44.928-44.928v0-77.653c-0.097-24.716-20.156-44.715-44.885-44.715-0.030 0-0.060 0-0.090 0h0.005zM511.915-64.064c0 0 0 0 0 0-24.759 0-44.837 20.047-44.885 44.795v77.658c0 24.813 20.115 44.928 44.928 44.928s44.928-20.115 44.928-44.928v0-77.653c-0.049-24.753-20.126-44.8-44.885-44.8-0.030 0-0.060 0-0.090 0h0.005zM979.286 403.136h-77.824c-24.742 0-44.8 20.058-44.8 44.8s20.058 44.8 44.8 44.8h77.824c24.742 0 44.8-20.058 44.8-44.8s-20.058-44.8-44.8-44.8v0zM788.224 678.592c-0.117-0.001-0.254-0.002-0.392-0.002-24.742 0-44.8 20.058-44.8 44.8 0 12.533 5.146 23.864 13.441 31.994l0.007 0.007 55.040 54.869c7.943 7.247 18.556 11.685 30.207 11.685 24.789 0 44.885-20.096 44.885-44.885 0-11.608-4.406-22.186-11.637-30.154l0.033 0.037-55.040-54.869c-8.122-8.119-19.341-13.141-31.733-13.141-0.004 0-0.007 0-0.011 0h0.001zM842.155 73.835c-0.014 0-0.030 0-0.046 0-12.381 0-23.589 5.022-31.698 13.141v0l-55.040 54.869c-7.198 7.931-11.604 18.509-11.604 30.117 0 24.789 20.096 44.885 44.885 44.885 11.65 0 22.264-4.439 30.242-11.717l-0.035 0.032 55.040-54.869c8.302-8.138 13.448-19.469 13.448-32.002 0-24.742-20.058-44.8-44.8-44.8-0.138 0-0.276 0.001-0.413 0.002h0.021zM-0.085 447.936c0.049 24.753 20.126 44.8 44.885 44.8 0 0 0 0 0 0h77.824c24.742 0 44.8-20.058 44.8-44.8s-20.058-44.8-44.8-44.8h-77.824c0 0 0 0 0 0-24.759 0-44.837 20.047-44.885 44.795v0.005zM235.691 678.592c-0.014 0-0.030 0-0.046 0-12.381 0-23.589 5.022-31.698 13.141v0l-55.040 54.869c-7.198 7.931-11.604 18.509-11.604 30.117 0 24.789 20.096 44.885 44.885 44.885 11.65 0 22.264-4.439 30.242-11.717l-0.035 0.032 55.040-54.869c8.302-8.138 13.448-19.469 13.448-32.002 0-24.742-20.058-44.8-44.8-44.8-0.138 0-0.276 0.001-0.413 0.002h0.021zM181.59 73.835c-0.117-0.001-0.254-0.002-0.392-0.002-24.742 0-44.8 20.058-44.8 44.8 0 12.533 5.146 23.864 13.441 31.994l0.007 0.007 55.040 54.869c7.943 7.247 18.556 11.685 30.207 11.685 24.789 0 44.885-20.096 44.885-44.885 0-11.608-4.406-22.186-11.637-30.154l0.033 0.037-55.040-54.869c-8.109-8.119-19.317-13.141-31.698-13.141-0.016 0-0.032 0-0.048 0h0.003z" />
<glyph unicode="&#xe905;" glyph-name="icon-dark" d="M1006.148 260.161c-77.171-191.301-261.185-323.898-476.203-324.162h-0.033c-282.647 0.281-511.709 229.301-512.061 511.904v0.034c0.351 282.663 229.399 511.709 512.027 512.061h0.034c0.044 0 0.095 0 0.147 0 33.367 0 65.989-3.192 97.576-9.288l-3.217 0.517c-205.349-30.998-360.986-206.127-361.223-417.654v-0.025c0.281-232.953 189.051-421.722 421.977-422.003h0.026c128.336 0.021 243.251 57.46 320.46 148.026l0.49 0.589z" />
<glyph unicode="&#xe906;" glyph-name="icon-avatar" d="M735.921 736.079c0-123.669-100.253-223.921-223.921-223.921s-223.921 100.253-223.921 223.921c0 123.669 100.253 223.921 223.921 223.921s223.921-100.253 223.921-223.921zM970.437 182.032c-99.98-149.161-267.896-246.032-458.437-246.032s-358.457 96.871-457.186 244.050l-1.252 1.982c2.292 152.048 305.625 235.331 458.437 235.331 152.048 0 456.145-83.283 458.437-235.331z" />
<glyph unicode="&#xe907;" glyph-name="keyboard_arrow_down" d="M155.991 718.866l353.785-353.785 353.785 353.785c16.823 19.56 41.602 31.872 69.257 31.872 50.358 0 91.182-40.823 91.182-91.182 0-27.655-12.311-52.433-31.752-69.156l-0.12-0.101-418.523-418.523c-16.481-16.386-39.199-26.515-64.283-26.515s-47.802 10.129-64.288 26.52l-418.519 418.519c-16.386 16.481-26.515 39.199-26.515 64.283s10.129 47.802 26.52 64.288l-0.004-0.004c16.694 16.29 39.543 26.338 64.739 26.338s48.045-10.049 64.758-26.357l-0.019 0.019z" />
<glyph unicode="&#xe908;" glyph-name="icon-login" d="M424.96 668.161c-9.246-9.138-14.972-21.821-14.972-35.84s5.726-26.702 14.968-35.836l97.285-97.285h-471.040c-28.277 0-51.2-22.924-51.2-51.2v0c0-28.277 22.924-51.2 51.2-51.2v0h471.040l-97.281-97.281c-9.246-9.138-14.972-21.821-14.972-35.84s5.726-26.702 14.968-35.836l0.005-0.005c9.138-9.246 21.821-14.972 35.84-14.972s26.702 5.726 35.836 14.968l183.813 183.813c9.202 9.254 14.888 22.012 14.888 36.096s-5.688 26.842-14.891 36.098l0.002-0.002-183.808 184.32c-9.138 9.246-21.821 14.972-35.84 14.972s-26.702-5.726-35.836-14.968l-0.005-0.005zM921.6 89.599h-358.401c-28.277 0-51.2-22.924-51.2-51.2v0c0-28.277 22.924-51.2 51.2-51.2v0h358.401c56.484 0.174 102.226 45.917 102.4 102.383v716.819c-0.174 56.484-45.917 102.226-102.383 102.4h-358.418c-28.277 0-51.2-22.924-51.2-51.2v0c0-28.277 22.924-51.2 51.2-51.2v0h358.401z" />
<glyph unicode="&#xe909;" glyph-name="circle-plus" d="M512 704c-28.277 0-51.2-22.923-51.2-51.2v0-153.6h-153.6c-28.277 0-51.2-22.923-51.2-51.2s22.923-51.2 51.2-51.2v0h153.6v-153.6c0-28.277 22.923-51.2 51.2-51.2s51.2 22.923 51.2 51.2v0 153.6h153.6c28.277 0 51.2 22.923 51.2 51.2s-22.923 51.2-51.2 51.2v0h-153.6v153.6c0 28.277-22.923 51.2-51.2 51.2v0zM512 960c-282.77 0-512-229.23-512-512s229.23-512 512-512c282.77 0 512 229.23 512 512v0c0 282.77-229.23 512-512 512v0zM512 38.4c-226.216 0-409.6 183.384-409.6 409.6s183.384 409.6 409.6 409.6c226.216 0 409.6-183.384 409.6-409.6v0c-0.32-226.087-183.513-409.28-409.569-409.6h-0.031z" />
<glyph unicode="&#xe90a;" glyph-name="icon-setting" d="M915.869 374.501c4.121 22.099 6.479 47.523 6.479 73.499s-2.358 51.4-6.869 76.072l0.39-2.574 59.795 61.789c10.279 10.561 16.618 25.003 16.618 40.924 0 11.004-3.028 21.299-8.295 30.101l0.148-0.268-57.304 99.659c-10.719 18.033-30.101 29.929-52.261 29.929-4.792 0-9.454-0.556-13.924-1.607l0.411 0.082-83.714-20.928c-36.026 30.7-78.191 55.54-124.224 72.343l-2.841 0.906-23.42 82.717c-7.389 24.957-30.109 42.854-57.010 42.854-0.103 0-0.207 0-0.311-0.001h-115.090c-26.968-0.019-49.757-17.888-57.194-42.43l-0.11-0.423-23.42-82.717c-48.676-17.805-90.664-42.63-127.142-73.728l0.574 0.478-84.212 20.928c-4.178 1.042-8.972 1.64-13.907 1.64-22.075 0-41.356-11.962-51.715-29.758l-0.153-0.285-57.304-99.659c-5.12-8.534-8.147-18.83-8.147-29.834 0-15.921 6.339-30.363 16.63-40.937l-0.012 0.013 59.795-61.789c-4.005-22.104-6.356-47.607-6.478-73.638v-0.109c-0.003-0.544-0.004-1.186-0.004-1.83 0-25.248 2.359-49.946 6.868-73.884l-0.386 2.465-59.795-61.789c-10.279-10.561-16.618-25.003-16.618-40.924 0-11.004 3.028-21.299 8.295-30.101l-0.148 0.268 57.803-99.659c10.512-18.080 29.793-30.043 51.867-30.043 4.935 0 9.731 0.598 14.318 1.725l-0.41-0.085 83.714 20.928c35.904-30.619 77.892-55.445 123.72-72.332l2.847-0.918 23.42-82.717c7.389-24.957 30.109-42.854 57.010-42.854 0.103 0 0.207 0 0.311 0.001h115.090c26.968 0.019 49.757 17.888 57.194 42.43l0.11 0.423 23.42 82.717c48.828 17.933 90.962 42.746 127.688 73.762l-0.622-0.512 83.714-20.928c4.178-1.042 8.972-1.64 13.907-1.64 22.075 0 41.356 11.962 51.715 29.758l0.153 0.285 57.304 99.659c5.12 8.534 8.147 18.83 8.147 29.834 0 15.921-6.339 30.363-16.63 40.937l0.012-0.013zM512.248 152.261c-0.075 0-0.161 0-0.249 0-163.332 0-295.739 132.407-295.739 295.739s132.407 295.739 295.739 295.739c163.332 0 295.739-132.407 295.739-295.739 0-0.088 0-0.176 0-0.263v0.014c-0.255-163.092-132.398-295.235-295.465-295.49h-0.025z" />
<glyph unicode="&#xe90b;" glyph-name="icon-refresh" d="M150.291 809.15c92.164 92.972 219.922 150.533 361.123 150.533 18.772 0 37.306-1.018 55.552-2.999l-2.259 0.199c259.139-27.428 459.292-244.811 459.292-508.941 0-282.562-229.062-511.625-511.625-511.625-202.556 0-377.62 117.71-460.516 288.458l-1.333 3.043c-4.114 8.212-6.523 17.895-6.523 28.139 0 35.32 28.634 63.954 63.954 63.954 0.045 0 0.090 0 0.135 0h-0.007c0.259 0.004 0.567 0.006 0.872 0.006 24.027 0 44.874-13.618 55.242-33.556l0.163-0.345c62.513-132.142 194.74-221.917 347.937-221.917 211.922 0 383.719 171.797 383.719 383.719s-171.797 383.719-383.719 383.719c-0.237 0-0.472 0-0.709 0h0.037c-105.647-0.25-201.082-43.769-269.559-113.768l-0.067-0.069 96.57-96.57c11.684-11.591 18.918-27.655 18.918-45.408 0-35.226-28.481-63.801-63.67-63.952h-229.863c-35.32 0-63.954 28.634-63.954 63.954v0 229.591c0 0.111-0.001 0.241-0.001 0.372 0 35.32 28.634 63.954 63.954 63.954 17.753 0 33.817-7.234 45.403-18.915l0.004-0.004 40.931-41.569z" />
<glyph unicode="&#xe90c;" glyph-name="icon-search" d="M732.181 315.543h-46.2l-16.375 15.79c57.064 66.187 91.818 153.012 91.818 247.956 0 210.261-170.45 380.711-380.711 380.711s-380.711-170.45-380.711-380.711c0-210.261 170.45-380.711 380.711-380.711 94.943 0 181.768 34.754 248.449 92.235l-0.493-0.417 15.79-16.375v-46.2l292.404-291.821 87.136 87.136zM381.295 315.543c-145.342 0-263.164 117.822-263.164 263.164s117.822 263.164 263.164 263.164c145.342 0 263.164-117.822 263.164-263.164v0c0-0.104 0-0.228 0-0.351 0-145.147-117.666-262.813-262.813-262.813-0.123 0-0.247 0-0.37 0h0.019z" />
<glyph unicode="&#xe90d;" glyph-name="icon-sports_basketball" d="M512 960c-282.77 0-512-229.23-512-512s229.23-512 512-512c282.77 0 512 229.23 512 512v0c0 282.77-229.23 512-512 512v0zM165.376 665.6c44.007-43.752 74.766-100.786 85.757-164.583l0.259-1.817h-145.408c8.287 62.519 29.306 118.813 60.402 168.117l-1.011-1.716zM105.984 396.8h145.408c-11.251-65.614-42.009-122.648-86.002-166.385l-0.015-0.015c-30.085 47.586-51.105 103.88-59.16 164.274l-0.232 2.125zM460.8 41.984c-89.947 11.895-168.999 51.457-230.048 109.72l0.16-0.152c66.409 63.056 111.502 147.994 123.693 243.222l0.211 2.025h105.984zM460.8 499.2h-105.984c-12.597 97.461-57.849 182.551-124.239 245.592l-0.177 0.167c61.151 57.875 140.355 97.246 228.315 108.832l2.085 0.225zM918.016 499.2h-145.408c11.251 65.614 42.009 122.648 86.002 166.385l0.015 0.015c30.085-47.586 51.105-103.88 59.16-164.274l0.232-2.125zM563.2 854.016c90.046-11.81 169.25-51.182 230.591-109.235l-0.191 0.18c-66.567-63.208-111.817-148.3-124.199-243.706l-0.218-2.055h-105.984zM563.2 41.984v354.816h105.984c12.616-97.2 57.66-182.081 123.74-245.094l0.164-0.155c-60.889-58.112-139.941-97.674-227.804-109.341l-2.084-0.226zM858.624 230.4c-43.93 43.802-74.668 100.811-85.752 164.566l-0.264 1.835h145.408c-8.287-62.519-29.306-118.813-60.402-168.117l1.011 1.716z" />
<glyph unicode="&#xe90e;" glyph-name="icon-close" d="M701.136 447.224l283.532 283.532c24.301 24.301 39.332 57.873 39.332 94.956 0 74.166-60.123 134.288-134.288 134.288-37.082 0-70.654-15.031-94.956-39.332l-283.532-283.532-283.532 283.532c-24.174 24.035-57.496 38.891-94.288 38.891s-70.114-14.856-94.294-38.897l0.006 0.006c-24.176-24.359-39.117-57.913-39.117-94.956s14.941-70.597 39.125-94.964l283.524-283.524-283.532-283.532c-19.988-23.234-32.159-53.692-32.159-86.993 0-73.863 59.878-133.741 133.741-133.741 33.301 0 63.759 12.17 87.169 32.307l-0.176-0.148 283.532 283.532 283.532-283.532c24.359-24.176 57.913-39.117 94.956-39.117s70.597 14.941 94.964 39.125l-0.008-0.008c24.035 24.174 38.891 57.496 38.891 94.288s-14.856 70.114-38.897 94.294l0.006-0.006zM701.136 447.224l283.532 283.532c24.301 24.301 39.332 57.873 39.332 94.956 0 74.166-60.123 134.288-134.288 134.288-37.082 0-70.654-15.031-94.956-39.332l-283.532-283.532-283.532 283.532c-24.174 24.035-57.496 38.891-94.288 38.891s-70.114-14.856-94.294-38.897l0.006 0.006c-24.176-24.359-39.117-57.913-39.117-94.956s14.941-70.597 39.125-94.964l283.524-283.524-283.532-283.532c-19.988-23.234-32.159-53.692-32.159-86.993 0-73.863 59.878-133.741 133.741-133.741 33.301 0 63.759 12.17 87.169 32.307l-0.176-0.148 283.532 283.532 283.532-283.532c24.359-24.176 57.913-39.117 94.956-39.117s70.597 14.941 94.964 39.125l-0.008-0.008c24.035 24.174 38.891 57.496 38.891 94.288s-14.856 70.114-38.897 94.294l0.006-0.006zM701.136 447.224l283.532 283.532c24.301 24.301 39.332 57.873 39.332 94.956 0 74.166-60.123 134.288-134.288 134.288-37.082 0-70.654-15.031-94.956-39.332l-283.532-283.532-283.532 283.532c-24.174 24.035-57.496 38.891-94.288 38.891s-70.114-14.856-94.294-38.897l0.006 0.006c-24.176-24.359-39.117-57.913-39.117-94.956s14.941-70.597 39.125-94.964l283.524-283.524-283.532-283.532c-19.988-23.234-32.159-53.692-32.159-86.993 0-73.863 59.878-133.741 133.741-133.741 33.301 0 63.759 12.17 87.169 32.307l-0.176-0.148 283.532 283.532 283.532-283.532c24.359-24.176 57.913-39.117 94.956-39.117s70.597 14.941 94.964 39.125l-0.008-0.008c24.035 24.174 38.891 57.496 38.891 94.288s-14.856 70.114-38.897 94.294l0.006-0.006z" />
<glyph unicode="&#xe90f;" glyph-name="cancel-circle" d="M512 960c-282.77 0-512-229.23-512-512s229.23-512 512-512 512 229.23 512 512-229.23 512-512 512zM512 32c-229.75 0-416 186.25-416 416s186.25 416 416 416 416-186.25 416-416-186.25-416-416-416zM672 704l-160-160-160 160-96-96 160-160-160-160 96-96 160 160 160-160 96 96-160 160 160 160z" />
<glyph unicode="&#xe910;" glyph-name="arrow" d="M1013.781 477.28l-203.563 233.911c-22.877 26.613-62.096 7.47-62.096-29.414v-149.871h-675.12c-42.954-3.268-75.636-40.619-72.835-84.040-2.335-43.421 29.88-80.304 73.301-83.573h673.72v-149.871c0-37.818 39.685-56.027 62.096-29.414l203.563 233.911c14.473 16.342 14.941 41.086 0.934 58.361z" />
<glyph unicode="&#xe911;" glyph-name="chevron-small-left" d="M779.053 67.467c29.828-30.161 29.828-78.909 0-108.847-29.828-30.050-78.017-30.271-107.845 0l-426.26 434.942c-29.828 30.050-29.828 78.685 0 108.958l426.26 434.942c29.715 30.050 78.017 30.050 107.845 0 29.828-30.161 29.828-78.909 0-108.847l-349.577-380.74 349.577-380.407z" />
<glyph unicode="&#xe912;" glyph-name="checkmark" d="M0 422.4l102.4 102.4 256-256 563.2 563.2 102.4-102.4-665.6-665.6z" />
<glyph unicode="&#xe913;" glyph-name="copyright" d="M413.696 506.112c2.692 16.698 8.066 31.683 15.71 45.217l-0.35-0.673c7.457 12.955 17.647 23.555 29.843 31.272l0.365 0.216c12.615 7.415 27.786 11.795 43.981 11.795 0.648 0 1.294-0.007 1.939-0.021l-0.096 0.002c0.071 0 0.155 0 0.239 0 11.929 0 23.286-2.448 33.597-6.868l-0.556 0.212c20.188-8.778 35.78-24.953 43.587-45.017l0.189-0.551c3.937-9.665 6.431-20.858 6.906-32.573l0.006-0.195h91.648c-0.609 23.969-5.728 46.581-14.534 67.245l0.454-1.197c-8.753 20.245-20.952 37.448-36.019 51.64l-0.077 0.072c-15.417 14.405-33.835 25.819-54.191 33.187l-1.105 0.349c-20.592 7.63-44.379 12.044-69.197 12.044-0.783 0-1.565-0.004-2.346-0.013l0.119 0.001c-1.557 0.043-3.389 0.067-5.228 0.067-29.511 0-57.549-6.308-82.839-17.648l1.283 0.514c-24.413-11.318-44.931-27.246-61.212-46.822l-0.228-0.282c-16.072-19.555-28.616-42.698-36.244-67.974l-0.364-1.402c-7.478-24.453-11.783-52.56-11.783-81.673 0-0.717 0.003-1.433 0.008-2.149l-0.001 0.11v-14.080c-0.002-0.407-0.003-0.888-0.003-1.37 0-29.45 4.398-57.873 12.574-84.648l-0.538 2.050c7.931-26.6 20.482-49.669 36.869-69.444l-0.261 0.324c16.616-19.757 37.214-35.6 60.616-46.401l1.080-0.447c24.145-10.824 52.332-17.129 81.991-17.129 1.775 0 3.545 0.023 5.309 0.067l-0.261-0.005c0.538-0.006 1.174-0.009 1.811-0.009 23.617 0 46.225 4.322 67.076 12.218l-1.303-0.433c21.279 7.952 39.617 18.961 55.526 32.706l-0.23-0.194c15.467 13.261 28.173 29.237 37.478 47.254l0.41 0.874c8.92 17.115 14.501 37.253 15.351 58.607l0.009 0.273h-91.904c-0.461-10.902-3.247-21.053-7.871-30.108l0.191 0.412c-4.623-9.203-10.821-16.955-18.317-23.203l-0.115-0.093c-7.628-6.358-16.552-11.487-26.277-14.919l-0.603-0.185c-9.158-3.245-19.721-5.12-30.721-5.12-0.090 0-0.179 0-0.269 0h0.014c-0.307-0.004-0.671-0.006-1.034-0.006-16.496 0-31.947 4.47-45.209 12.266l0.419-0.228c-12.65 8.017-22.922 18.698-30.232 31.31l-0.232 0.434c-7.337 12.935-12.716 28.014-15.26 44.037l-0.1 0.763c-2.449 14.45-3.849 31.097-3.849 48.070 0 0.83 0.003 1.66 0.010 2.489l-0.001-0.127v14.080c0.030 18.048 1.612 35.705 4.619 52.871l-0.267-1.842zM512 960c-282.77 0-512-229.23-512-512s229.23-512 512-512c282.77 0 512 229.23 512 512v0c0 282.77-229.23 512-512 512v0zM512 38.4c-226.216 0-409.6 183.384-409.6 409.6s183.384 409.6 409.6 409.6c226.216 0 409.6-183.384 409.6-409.6v0c-0.291-226.099-183.501-409.309-409.572-409.6h-0.028z" />
<glyph unicode="&#xe914;" glyph-name="visibility" horiz-adv-x="997" d="M498.668 788.078c-220.321 0-417.974-135.094-498.67-340.002 107.894-275.628 418.882-411.175 694.51-302.828 138.72 54.4 248.428 164.108 302.828 302.828-80.693 204.908-278.348 340.002-498.67 340.002zM498.668 198.743c-170-0.453-325.495 96.56-399.841 249.334 108.348 220.774 374.908 311.895 595.683 204.001 88.853-43.52 160.481-115.148 204.001-204.001-74.348-152.773-229.841-249.788-399.841-249.334zM671.842 448.077c0-95.641-77.532-173.174-173.174-173.174s-173.174 77.532-173.174 173.174c0 95.641 77.532 173.174 173.174 173.174s173.174-77.532 173.174-173.174z" />
<glyph unicode="&#xe915;" glyph-name="visibility_off" d="M1024.001 472.436c-32.116-81.92-83.317-153.6-148.014-210.851l-65.629 65.629c46.080 39.563 84.713 88.436 112.174 145.222-76.8 156.858-234.124 255.999-410.531 255.999-31.651 0-62.371-4.189-92.625-10.24l-76.8 76.8c53.527 17.221 110.313 26.531 169.425 26.531 232.728 0 431.476-144.757 512-349.091zM720.99 472.902c0-17.221-2.793-33.978-6.517-49.804l-252.277 252.277c16.291 4.189 32.581 6.517 49.804 6.517 115.433 0 209.454-93.556 208.989-208.989zM112.641 893.672l-65.629-66.094 124.741-124.741c-75.869-59.579-135.912-138.705-171.753-230.4 80.524-204.334 279.273-349.091 512-349.091 70.749 0 138.705 13.499 201.076 38.167l159.185-159.185 65.629 65.629-825.249 825.714zM512.001 216.437c-176.407 0-333.731 99.142-410.531 255.999 32.581 66.56 80.058 121.484 136.379 164.306l81.454-81.454c-10.706-25.6-16.756-53.527-16.756-82.85 0-115.433 94.021-209.454 209.454-209.454 29.324 0 57.251 6.050 82.385 16.756l45.615-45.615c-40.96-11.171-83.782-17.688-128-17.688z" />
<glyph unicode="&#xe916;" glyph-name="additional_Information" d="M636.849 716.525c0-115.482-93.616-209.098-209.098-209.098s-209.098 93.616-209.098 209.098c0 115.482 93.616 209.098 209.098 209.098s209.098-93.616 209.098-209.098zM493.028 415.614v-441.018c-193.709-24.944-384.763 62.093-493.027 225.019 2.122 142.229 284.99 220.243 427.75 220.243 21.76-0.53 43.517-1.592 65.277-4.246zM1024 41.041c0-29.188-23.882-53.070-53.070-53.070h-318.424c-29.188 0-53.070 23.882-53.070 53.070s23.882 53.070 53.070 53.070h318.424c29.188-0.53 53.070-23.882 53.070-53.070zM1024 194.945c0-29.188-23.882-53.070-53.070-53.070h-318.424c-29.188 0-53.070 23.882-53.070 53.070s23.882 53.070 53.070 53.070h318.424c29.188-0.53 53.070-23.882 53.070-53.070zM1024 348.851c0-29.188-23.882-53.070-53.070-53.070h-318.424c-29.188 0-53.070 23.882-53.070 53.070s23.882 53.070 53.070 53.070h318.424c29.188 0 53.070-23.882 53.070-53.070z" />
<glyph unicode="&#xe917;" glyph-name="color" d="M722.898 669.357c-57.28 97.202-119.768 190.933-189.199 279.457-8.678 12.151-26.036 14.755-38.188 6.074-2.604-1.737-4.34-3.471-5.207-6.074-69.431-88.524-131.919-182.255-189.199-279.457-76.373-115.427-123.238-248.213-136.256-386.206 0-190.933 155.351-347.151 347.151-347.151s347.151 155.351 347.151 347.151c-13.018 137.993-59.884 270.779-136.256 386.206zM559.736 52.293v0.867c-20.829-5.207-41.658-7.811-62.487-7.811-128.445-1.737-233.461 100.675-235.195 229.12 0.867 36.451 8.678 72.035 22.566 105.882 2.604 6.944 10.415 10.415 17.358 8.678 6.944-0.867 12.151-7.811 11.282-14.755-0.867-8.678-0.867-16.489-0.867-25.169 0.867-138.86 106.749-255.157 245.609-268.175 7.811-0.867 13.018-7.811 13.018-15.622-0.867-6.074-5.207-11.282-11.282-13.018z" />
<glyph unicode="&#xe918;" glyph-name="shirt" d="M895.806 543.952v-575.712c0-17.912-14.328-32.24-32.24-32.24h-703.136c-17.912 0-32.24 14.328-32.24 32.24v575.712c0 10.235 5.117 19.958 13.306 26.099 142.265 103.372 115.142 351.568 114.631 354.127-2.046 17.399 10.235 33.264 27.634 35.822 1.535 0 2.559 0 4.094 0h63.969c14.841 0 28.145-10.235 31.216-25.075 13.306-60.385 67.039-103.372 128.96-102.861 61.921-0.511 115.654 42.475 128.448 102.861 3.582 14.841 16.376 25.075 31.729 25.075h63.969c9.211 0 17.912-4.094 24.052-10.747 5.63-6.652 8.7-15.864 7.676-25.075 0-2.559-27.634-250.754 115.142-354.127 7.676-6.141 12.793-15.864 12.793-26.099z" />
<glyph unicode="&#xe919;" glyph-name="sort-down" horiz-adv-x="608" d="M608 581.001c0-10.094-4.156-19.593-11.281-26.719l-266-266c-7.125-7.125-16.625-11.281-26.719-11.281s-19.593 4.156-26.719 11.281l-266 266c-7.125 7.125-11.281 16.625-11.281 26.719 0 20.781 17.218 37.999 37.999 37.999h532.002c20.781 0 37.999-17.218 37.999-37.999z" />
<glyph unicode="&#xe91a;" glyph-name="ball" d="M11.876 340.229c-0.854 2.133-1.28 4.265-1.28 6.398-1.28 5.119-2.133 10.663-3.413 16.635 0 1.28-0.426 2.559-0.426 4.692-2.133 13.65-3.839 28.152-4.692 42.654-0.426 8.531-0.426 17.061-1.28 26.446 0 3.839-0.426 8.531-0.426 12.37v7.252c0 5.972 0 12.37 0.426 18.341 0.426 11.943 1.706 24.313 3.413 36.256 0.426 4.692 1.28 9.384 2.133 13.222 2.133 13.65 4.692 27.726 7.252 40.948 6.824 29.432 16.209 58.437 28.152 86.162 20.9 48.2 48.626 92.56 82.75 132.229 163.793 32.844 333.559 24.313 493.086-25.593-34.124-54.598-138.201-98.532-256.353-148.438-59.289-25.593-120.286-51.185-182.562-82.323-79.337-37.109-139.48-104.93-166.779-187.253zM177.376 836.301c88.295 76.352 199.623 119.86 316.070 123.699 79.337-12.37 137.347-81.043 136.921-161.234-146.305 45.213-301.141 58.010-452.991 37.536zM216.191 29.704c-19.195 13.65-37.536 29.006-54.598 45.213-10.237 8.957-19.621 18.768-28.152 29.006-7.678 9.384-15.782 17.915-23.033 26.872-7.678 9.384-14.93 19.195-21.754 29.432-2.559 4.265-5.545 8.531-8.531 12.37-10.663 16.209-20.048 33.271-29.006 50.759-2.559 5.119-5.119 11.091-8.104 17.061s-5.119 11.091-7.252 17.061c4.692 42.654 17.915 84.456 39.243 121.565 29.006 47.347 71.234 84.882 121.565 108.343 61.849 30.285 122.419 56.73 180.855 81.043 133.936 56.73 243.131 103.224 280.667 172.751 32.844-12.796 64.408-28.152 94.693-46.067-116.447-264.885-301.568-494.793-536.594-665.411zM604.775 951.468c75.499-13.65 146.732-44.361 208.155-89.575-11.943-42.654-26.446-84.882-42.228-125.404-31.565 18.341-64.408 34.124-98.532 47.347 9.811 63.982-16.209 127.964-67.395 167.632zM824.872 472.032c-19.195-164.22-46.067-398.393-176.164-517.399-132.656-36.683-274.268-18.768-393.702 49.906 232.894 172.751 417.588 402.659 534.888 667.97 20.9-14.502 40.948-30.711 59.289-48.626-12.37-49.48-20.474-100.665-24.313-151.851zM807.384 713.456c19.195 47.347 32.844 88.295 42.228 119.432 5.119-4.692 9.811-9.384 14.93-13.65 34.976-33.271 64.835-70.806 89.575-112.608-11.517 0.854-23.46 0-34.976-3.413-20.474-6.398-38.389-20.048-49.906-37.963-19.621 17.061-40.522 33.271-61.849 48.2zM884.162 588.052c66.967-80.191 108.343-178.296 119.432-281.946-40.948-139.907-139.48-256.353-270.857-319.483 94.693 135.215 117.727 334.411 134.788 481.143 5.545 46.493 10.237 89.148 16.635 120.286zM1023.642 448.571c0-9.384 0-17.915-0.426-26.446-23.46 80.191-66.115 153.556-123.699 213.699 5.972 12.796 17.061 22.607 30.711 26.872 16.209 3.839 33.697 2.133 48.626-5.119 29.858-65.688 44.787-136.921 44.787-209.007z" />
<glyph unicode="&#xe91b;" glyph-name="delete" d="M170.667 49.778c0-62.578 51.2-113.778 113.778-113.778h455.111c62.578 0 113.778 51.2 113.778 113.778v568.887c0 62.578-51.2 113.778-113.778 113.778h-455.111c-62.578 0-113.778-51.2-113.778-113.778v-568.887zM351.005 495.217c22.187 22.187 58.027 22.187 80.213 0l80.782-80.782 80.782 80.782c23.893 20.48 59.733 17.635 80.213-6.258 18.205-21.048 18.205-52.907 0-73.955l-80.782-80.782 80.782-80.782c20.48-23.893 17.635-59.733-6.258-80.213-21.048-18.205-52.907-18.205-73.955 0l-80.782 80.782-80.782-80.782c-23.893-20.48-59.733-17.635-80.213 6.258-18.205 21.048-18.205 52.907 0 73.955l80.782 80.782-80.782 80.782c-22.187 22.187-22.187 58.027 0 80.213zM711.111 903.11l-40.392 40.392c-10.808 10.24-25.032 16.498-39.822 16.498h-237.795c-14.792 0-29.013-6.258-39.822-16.498l-40.392-40.392h-142.221c-31.288 0-56.888-25.6-56.888-56.888s25.6-56.888 56.888-56.888h682.666c31.288 0 56.888 25.6 56.888 56.888s-25.6 56.888-56.888 56.888h-142.221z" />
<glyph unicode="&#xe91c;" glyph-name="field" horiz-adv-x="1744" d="M18.686 953.964c-7.201 0-13.052-5.289-13.052-11.814v-988.273c0-6.526 5.851-11.814 13.052-11.814h1706.644c7.201 0 13.052 5.289 13.052 11.814v988.273c0 6.526-5.851 11.814-13.052 11.814h-1706.644zM18.686 959.59h1706.644c10.323 0 18.678-7.82 18.678-17.441v-988.273c0-9.62-8.354-17.441-18.678-17.441h-1706.644c-10.323 0-18.678 7.82-18.678 17.441v988.273c-0.028 9.62 8.354 17.441 18.678 17.441zM873.455 416.587h-2.813l-0.056 1.407v61.435h2.869zM872.751 417.29h-1.435v61.435h1.435v-61.435zM872.020 417.993h0.028l-0.028 60.028v-60.028zM873.455 413.647h-2.813l-0.056 1.407v67.314h2.869zM872.751 414.35h-1.435v67.314h1.435v-67.314zM872.020 415.054h0.028l-0.028 65.907v-65.907zM873.455 416.573h-2.813l-0.056 1.407v61.435h2.869zM872.751 417.276h-1.435v61.435h1.435v-61.435zM872.020 417.979h0.028l-0.028 60.028v-60.028zM872.009 318.862c-71.196 0-129.114 57.919-129.114 129.142s57.919 129.114 129.114 129.114 129.114-57.919 129.114-129.114-57.89-129.142-129.114-129.142zM872.009 571.493c-68.073 0-123.489-55.415-123.489-123.489 0-68.101 55.415-123.489 123.489-123.489 68.101 0 123.489 55.415 123.489 123.489 0.028 68.073-55.387 123.489-123.489 123.489zM869.181 959.956h5.626v-1023.913h-5.626v1023.913zM335.015 318.887h-335.023v258.2h335.023v-258.2zM5.617 324.513h323.771v246.949h-323.771v-246.949zM335.015 274.201h-335.023v347.596h335.023v-347.596zM5.617 279.826h323.771v336.344h-323.771v-336.344zM335.043 318.87c-6.723 0-13.446 0.535-20.028 1.547l0.872 5.57c6.301-0.985 12.743-1.491 19.184-1.491v-5.626zM295.436 325.058c-6.357 2.054-12.63 4.614-18.593 7.651l2.532 5.007c5.711-2.898 11.702-5.345 17.777-7.313l-1.716-5.345zM259.655 343.146c-5.429 3.91-10.577 8.27-15.359 12.968l3.967 3.995c4.557-4.501 9.508-8.692 14.684-12.405l-3.291-4.557zM231.132 371.331c-3.995 5.401-7.566 11.111-10.661 17.047l4.979 2.588c2.954-5.655 6.385-11.139 10.183-16.287l-4.501-3.348zM212.595 406.859c-2.138 6.357-3.77 12.912-4.895 19.493l5.542 0.928c1.069-6.301 2.644-12.574 4.67-18.649l-5.317-1.772zM205.927 446.381v1.604c0 6.188 0.45 12.405 1.322 18.453l5.57-0.788c-0.844-5.795-1.266-11.758-1.266-17.666v-1.519l-5.626-0.084zM217.011 484.412l-5.373 1.66c1.969 6.385 4.473 12.686 7.426 18.706l5.064-2.476c-2.869-5.767-5.233-11.786-7.116-17.89zM233.888 518.843l-4.614 3.235c3.854 5.486 8.157 10.689 12.799 15.5l4.051-3.91c-4.445-4.585-8.551-9.592-12.236-14.824zM260.499 546.438l-3.404 4.473c5.345 4.051 11.027 7.707 16.906 10.858l2.673-4.951c-5.626-3.010-11.083-6.497-16.175-10.38zM294.254 564.581l-1.857 5.317c6.301 2.194 12.855 3.938 19.437 5.12l1.013-5.542c-6.301-1.153-12.574-2.785-18.593-4.895zM331.976 571.417l-0.141 5.626c1.069 0.028 2.138 0.028 3.207 0.028v-5.626c-1.041 0.028-2.054 0-3.066-0.028zM335.043 318.87v5.626c68.101 0 123.489 55.415 123.489 123.489s-55.415 123.489-123.489 123.489v5.626c71.196 0 129.114-57.919 129.114-129.114s-57.919-129.114-129.114-129.114zM100.571 4.031c29.002 0 57.975 3.038 86.105 9.001 27.427 5.823 54.402 14.515 80.197 25.851 25.317 11.111 49.761 24.895 72.602 40.901 22.644 15.865 43.938 34.121 63.264 54.205 19.353 20.084 36.934 42.194 52.209 65.71 15.443 23.741 28.721 49.114 39.438 75.416 10.914 26.808 19.296 54.852 24.923 83.348 5.739 29.086 8.664 58.988 8.692 88.945v0.619c0 30.126-2.926 60.253-8.692 89.508-5.626 28.524-14.009 56.54-24.923 83.348-10.717 26.301-23.994 51.674-39.438 75.416-15.303 23.516-32.855 45.598-52.209 65.682s-40.648 38.313-63.264 54.177c-22.841 16.034-47.258 29.789-72.602 40.901-25.795 11.308-52.771 20-80.197 25.823-28.13 5.963-57.103 9.001-86.077 9.001 0 0-0.028 0-0.028 0h-94.937v-887.907h94.937zM100.571-1.595h-100.562v899.159h100.562c239.157 0.028 433.053-201.238 433.081-449.509v-0.056c-0.028-248.299-193.925-449.594-433.081-449.594zM1744.003 318.887h-335.023v258.2h335.023v-258.2zM1414.607 324.513h323.771v246.949h-323.771v-246.949zM1744.003 274.201h-335.023v347.596h335.023v-347.596zM1414.607 279.826h323.771v336.344h-323.771v-336.344zM1408.969 318.898v5.626c1.013 0 2.054 0 3.066 0.028l0.141-5.626c-1.041-0.028-2.11-0.028-3.207-0.028zM1432.177 320.98l-1.013 5.542c6.301 1.153 12.546 2.785 18.593 4.895l1.857-5.317c-6.301-2.222-12.827-3.938-19.437-5.12zM1470.010 334.201l-2.673 4.951c5.626 3.038 11.083 6.526 16.175 10.38l3.404-4.473c-5.317-4.051-11.027-7.707-16.906-10.858zM1501.938 358.421l-4.051 3.91c4.445 4.614 8.551 9.592 12.236 14.853l4.614-3.235c-3.826-5.514-8.129-10.717-12.799-15.528zM1524.976 391.219l-5.064 2.476c2.813 5.767 5.204 11.786 7.088 17.89l5.373-1.66c-1.941-6.385-4.445-12.686-7.398-18.706zM1536.79 429.532l-5.57 0.788c0.844 5.795 1.266 11.758 1.266 17.666v1.519l5.626 0.084v-1.604c-0.028-6.16-0.45-12.377-1.322-18.453zM1530.742 468.688c-1.069 6.301-2.644 12.602-4.67 18.649l5.345 1.8c2.138-6.329 3.77-12.883 4.895-19.493l-5.57-0.956zM1518.562 505.031c-2.954 5.655-6.385 11.139-10.183 16.287l4.529 3.348c3.995-5.401 7.566-11.111 10.661-17.047l-5.007-2.588zM1495.777 535.862c-4.557 4.501-9.508 8.692-14.684 12.405l3.291 4.557c5.429-3.91 10.577-8.27 15.359-12.968l-3.967-3.995zM1464.638 558.252c-5.711 2.898-11.702 5.345-17.805 7.313l1.716 5.345c6.357-2.054 12.63-4.614 18.593-7.651l-2.504-5.007zM1428.154 570.011c-6.301 0.985-12.743 1.491-19.184 1.491v5.626c6.723 0 13.446-0.535 20.028-1.547l-0.844-5.57zM1408.969 318.87c-71.196 0-129.114 57.919-129.114 129.114s57.919 129.114 129.114 129.114v-5.626c-68.073 0.028-123.489-55.387-123.489-123.489s55.415-123.489 123.489-123.489v-5.626zM1643.443 891.938c-29.002 0-57.975-3.038-86.105-9.001-27.427-5.823-54.402-14.515-80.197-25.851-25.317-11.111-49.761-24.895-72.602-40.901-22.644-15.865-43.938-34.121-63.264-54.205-19.353-20.084-36.934-42.194-52.209-65.71-15.443-23.741-28.721-49.114-39.438-75.416-10.914-26.808-19.296-54.852-24.923-83.348-5.739-29.058-8.664-58.959-8.692-88.889l0.028-0.056v-0.619c0-30.126 2.926-60.253 8.692-89.508 5.626-28.524 14.009-56.54 24.923-83.348 10.717-26.301 23.994-51.674 39.438-75.416 15.303-23.516 32.883-45.598 52.209-65.682 19.353-20.084 40.648-38.313 63.264-54.177 22.841-16.034 47.286-29.789 72.602-40.901 25.795-11.308 52.771-20 80.197-25.823 28.13-5.963 57.103-9.001 86.077-9.001 0 0 0.028 0 0.028 0h94.937v887.851h-94.965zM1643.443 897.564h100.562v-899.159h-100.562c-239.157-0.028-433.053 201.238-433.081 449.509l-0.028 0.056c0.028 248.327 193.925 449.594 433.109 449.594z" />
<glyph unicode="&#xe91d;" glyph-name="history" d="M921.599 908.8h-614.911c-56.32 0-102.4-46.080-102.4-102.4v-511.999c0-56.32 46.080-102.4 102.4-102.4h614.911c56.32 0 102.4 46.080 102.4 102.4v511.999c0 56.32-46.080 102.4-102.4 102.4zM921.599 294.4h-614.911v409.6h614.911v-409.6zM51.199 448v0c-28.159 0-51.199-23.040-51.199-51.199v-307.2c0-56.32 46.080-102.4 102.4-102.4h409.6c28.159 0 51.199 23.040 51.199 51.199v0c0 28.159-23.040 51.199-51.199 51.199h-409.6v307.2c0 28.159-23.040 51.199-51.199 51.199z" />
<glyph unicode="&#xe91e;" glyph-name="jump_ball" d="M654.075 754.407h-7.479c-86.606 35.823-183.449 35.823-270.056 0h-8.267c-17.322 0-31.099 14.172-31.099 31.494 0 8.267 3.543 16.141 9.055 22.046l142.901 142.901c12.203 12.203 31.887 12.203 43.697 0 0 0 0 0 0 0l142.901-142.901c12.203-12.203 12.203-31.887 0-44.090-5.512-6.298-13.384-9.448-21.651-9.448zM151.007 231.854c-0.393 1.574-0.788 3.15-0.788 4.724-0.788 3.543-1.181 7.479-2.362 11.81 0 0.788-0.393 1.969-0.393 3.15-1.574 9.841-2.755 20.077-3.15 30.313-0.393 5.905-0.393 12.203-0.788 18.896 0 2.755-0.393 6.298-0.393 9.055v5.117c0 4.331 0 8.66 0.393 12.991 0.393 8.66 1.181 17.322 2.362 25.982 0.393 3.15 0.788 6.693 1.574 9.448 1.574 9.841 3.15 19.684 5.117 29.132 4.724 21.258 11.417 41.728 20.077 61.412 14.172 34.249 33.856 66.136 58.262 94.48 116.919 23.62 238.169 17.322 351.939-18.503-24.408-38.973-98.416-70.467-183.055-106.29-42.123-18.503-85.82-36.611-130.698-58.657-55.9-25.982-98.811-74.010-118.1-133.060zM271.469 589.303c62.986 54.326 142.508 85.425 225.571 88.182 56.688-8.66 98.023-57.869 97.63-114.95-104.321 32.28-214.942 41.335-323.201 26.77zM297.057 2.739c-13.779 9.841-26.77 20.865-38.973 32.28-7.086 6.298-13.779 13.384-20.077 20.47-5.512 6.693-11.417 12.598-16.534 19.289-5.512 6.693-10.629 13.779-15.353 20.865-1.969 3.15-3.936 5.905-6.298 9.055-7.479 11.81-14.565 23.62-20.47 36.218-1.969 3.936-3.936 7.874-5.512 12.203-1.969 3.936-3.543 7.874-5.117 12.203 3.15 30.706 12.991 60.231 28.344 87.001 20.865 33.856 50.783 60.624 87.001 77.553 44.090 21.651 87.394 40.547 129.123 57.869 95.661 40.547 173.607 73.615 200.377 123.612 23.62-9.055 46.059-20.077 67.71-33.068-84.244-189.748-216.517-353.907-384.219-475.551zM579.711 671.186c53.538-9.841 104.716-31.494 148.806-63.774-8.66-30.313-18.896-60.624-29.918-89.756-22.439 12.991-46.059 24.408-70.467 33.856 6.693 46.059-11.81 91.725-48.421 119.675zM735.996 318.853c-13.779-117.312-32.675-284.622-125.974-369.654-94.873-25.982-196.046-13.384-281.079 35.823 166.521 123.218 298.4 287.771 382.251 477.125 14.96-10.236 29.132-22.046 42.123-34.642-8.66-35.823-14.565-72.041-17.322-108.652zM726.155 501.515c13.779 33.856 23.62 62.986 29.918 85.425 3.543-3.15 7.086-6.693 10.629-9.841 24.801-23.62 46.452-50.783 63.774-80.308-8.267 0.788-16.927 0-24.801-2.362-14.565-4.724-27.163-14.172-35.823-27.163-13.384 12.203-28.344 23.62-43.697 34.249zM781.268 401.523c47.633-57.081 77.553-127.155 85.425-201.558-29.132-99.992-99.597-183.055-193.291-228.327 67.71 96.842 83.851 238.956 96.054 343.672 3.936 33.461 7.086 64.167 11.81 86.213zM880.866 308.224c0-6.693 0-12.598-0.393-18.896-16.927 57.081-47.24 109.44-88.182 152.743 4.331 9.448 12.203 16.141 22.046 19.289 11.81 2.755 24.013 1.574 34.642-3.543 21.258-47.24 31.887-98.023 31.887-149.594z" />
<glyph unicode="&#xe91f;" glyph-name="pause" d="M219.428-64c80.458 0 146.286 65.829 146.286 146.286v731.427c0 80.458-65.829 146.286-146.286 146.286s-146.286-65.829-146.286-146.286v-731.427c0-80.458 65.829-146.286 146.286-146.286zM658.285 813.714v-731.427c0-80.458 65.829-146.286 146.286-146.286s146.286 65.829 146.286 146.286v731.427c0 80.458-65.829 146.286-146.286 146.286s-146.286-65.829-146.286-146.286z" />
<glyph unicode="&#xe920;" glyph-name="play" d="M91.577 877.264v-858.407c0-45.571 37.286-82.857 82.857-82.857 15.742 0 31.487 4.971 44.743 13.256l674.462 429.205c38.944 24.857 50.543 75.4 25.685 114.344-6.629 10.771-15.742 19.058-25.685 25.685l-674.462 428.375c-38.114 24.857-89.487 13.256-114.344-24.857-9.115-13.256-13.256-28.171-13.256-44.743z" />
<glyph unicode="&#xe921;" glyph-name="reverse" d="M170.286 457.656l-161.93-186.071c-11.142-13.741-11.142-33.426 0-47.167l161.93-186.071c18.198-21.17 49.396-5.942 49.396 23.398v119.962h350.23c36.769 4.828 62.766 38.997 57.567 75.766-4.086 30.083-27.484 53.482-57.567 57.567h-350.23v119.219c0 30.083-31.569 44.568-49.396 23.398zM1015.592 671.582l-161.93 186.071c-18.198 21.17-49.396 5.942-49.396-23.398v-119.219h-350.973c-34.169-2.599-60.167-32.312-58.309-66.481-1.857-34.54 23.769-63.88 58.309-66.481h350.23v-119.219c0-30.083 31.569-44.568 49.396-23.398l161.93 186.071c11.885 12.627 12.256 32.312 0.743 46.053v0z" />
<glyph unicode="&#xe922;" glyph-name="star" d="M511.812 136.862l285.094-172.049c12.684-8.272 29.778-3.86 38.049 8.823 3.86 6.066 4.963 13.785 3.309 20.955l-75.548 324.247 251.457 217.82c11.58 9.926 13.235 27.020 3.309 38.6-4.963 5.514-11.58 9.375-19.301 9.926l-331.415 28.123-129.588 305.499c-6.066 13.785-22.057 20.403-36.395 14.338-6.617-2.758-11.58-8.272-14.338-14.338l-129.588-305.499-331.415-28.123c-15.44-1.103-26.469-14.889-25.366-29.778 0.551-7.168 3.86-13.785 9.926-18.748l251.457-217.82-75.548-324.247c-3.309-14.889 5.514-29.778 20.403-33.086 7.168-1.654 14.889-0.551 20.955 3.309l284.543 172.049z" />
<glyph unicode="&#xe923;" glyph-name="timeout" d="M630.793 920.741v0c0-21.621-17.637-39.258-39.258-39.258h-26.171v-39.826c-17.637 2.275-35.276 3.414-52.913 3.414s-35.276-0.568-52.344-2.845v39.258h-26.171c-21.621 0-39.258 17.637-39.258 39.258v0 0c0 21.621 17.637 39.258 39.258 39.258h158.169c21.051 0 38.689-17.637 38.689-39.258zM906.962 699.192l-27.878-29.017c-27.31 33.569-59.172 63.154-94.446 88.188l28.448 30.155 93.877-89.325zM526.903 809.567c-10.241 0-19.914 0-30.155 0h-1.707c-220.753-9.103-400.543-180.927-418.18-401.111-0.568 3.982-0.568 8.534-0.568 12.516 24.464 221.323 211.082 389.163 433.542 389.732 5.689 0 11.38-0.568 17.069-1.138zM558.764 807.86c-10.241 1.138-21.051 1.707-31.862 1.707 10.81 0 21.621-0.568 31.862-1.707zM753.345 737.879c-8.534 5.689-16.5 10.81-25.603 15.93h-0.568c-8.534 5.121-17.637 9.673-26.741 14.223-6.259 3.414-12.516 6.259-19.344 8.534-5.121 2.275-10.241 3.982-15.362 5.689-6.827 2.845-14.223 5.689-21.051 7.396-10.241 3.414-19.914 5.689-30.723 8.534-6.259 1.138-13.086 2.845-19.344 3.982s-13.086 2.275-19.914 3.414c-4.552 0.568-9.103 1.138-13.655 1.707-0.568 0.568-1.707 0.568-2.275 0.568-20.482 2.275-41.533 2.845-62.015 1.707h-1.707c-220.753-9.103-400.543-180.927-418.18-401.111v-0.568c-1.138-17.637-1.707-34.706-1.138-52.344 8.534-222.46 182.634-402.818 404.525-419.318 3.982-0.568 7.966 0 11.38 1.138 56.326-2.845 112.653 5.121 166.133 23.896 109.807 38.119 199.702 118.912 249.201 224.167 0.568 0.568 0.568 1.138 1.138 1.138l2.275 3.982c1.138 2.275 2.275 5.121 2.845 7.396 1.138 2.275 2.275 4.552 2.845 7.396 3.982 10.241 7.966 20.482 11.38 31.292s6.827 21.051 9.103 32.43c2.275 8.534 3.982 17.637 5.689 26.171 4.552 26.171 6.259 52.344 6.259 79.084v1.707c0 145.083-73.395 281.631-195.15 361.854zM512.678 23.845c-55.188 0-109.239 12.516-158.169 36.982-1.138 0.568-2.275 1.138-3.414 1.138-111.514 58.033-183.202 171.254-188.323 296.425-7.396 192.875 142.808 355.026 335.682 362.992 76.24 2.845 151.91-19.344 214.496-63.154 9.673-6.259 19.344-13.655 27.878-21.621 8.534-7.396 17.069-15.362 25.034-23.896l11.38-11.948c3.414-3.982 6.827-8.534 10.241-13.086 6.827-7.966 12.516-17.069 18.207-25.603 1.138-2.275 2.845-3.982 3.982-6.827 14.793-23.896 26.741-50.067 35.276-76.809 10.241-33.569 15.93-68.274 15.93-103.55 1.138-192.875-155.324-349.906-348.199-351.044zM825.033 373.182c0-83.068-32.999-162.72-91.602-221.323l-221.323 221.323v312.923h0.568c172.393-0.568 312.355-140.531 312.355-312.923z" />
<glyph unicode="&#xe924;" glyph-name="arrow_right" d="M241.169 92.112l353.697 353.697-353.697 353.697c-38.287 32.817-42.846 90.248-10.028 128.535s90.248 42.846 128.535 10.028c3.645-2.735 7.294-6.38 10.028-10.028l418.421-418.421c35.552-35.552 35.552-92.983 0-128.535l-418.421-418.421c-35.552-35.552-92.983-35.552-128.535 0s-35.552 92.983 0 129.445z" />
</font>
</defs>
</svg>
