<?xml version="1.0" encoding="UTF-8"?>
<svg width="47px" height="39px" viewBox="0 0 47 39" version="1.1" xmlns="http://www.w3.org/2000/svg" xmlns:xlink="http://www.w3.org/1999/xlink">
    <!-- Generator: Sketch 52.2 (67145) - http://www.bohemiancoding.com/sketch -->
    <title>catalog-of-colors copy</title>
    <desc>Created with Sketch.</desc>
    <g id="Page-1" stroke="none" stroke-width="1" fill="none" fill-rule="evenodd">
        <g id="3" transform="translate(-652.000000, -809.000000)">
            <g id="catalog-of-colors-copy" transform="translate(675.420594, 828.278689) rotate(-360.000000) translate(-675.420594, -828.278689) translate(652.000000, 809.000000)">
                <path d="M35.2209335,25.7760557 L46.1963871,14.4971082 C46.5603843,14.1230458 46.5754786,13.5319517 46.2310478,13.1397986 L38.0767907,3.8557377 L33.5269025,24.8670171 C33.4100171,25.4067913 33.7528362,25.9391192 34.2926104,26.0560046 C34.6296216,26.1289827 34.980455,26.0231839 35.2209335,25.7760557 Z" id="Path" fill="#0D8E8F"></path>
                <path d="M28.1865077,13.0973548 L28.4353592,13.9896035 L30.5872963,21.7078994 C30.7356216,22.2398938 31.2871297,22.550919 31.8191241,22.4025937 C32.1807475,22.3017696 32.4554358,22.0068994 32.5304116,21.6390468 L35.7073973,6.05185533 L36.0128183,4.555296 L36.1164611,4.06875854 C36.2272514,3.54866793 35.9116325,3.03283149 35.3981194,2.8947263 L24.634731,-2.27373675e-13 L24.591624,0.208415299 L27.9376563,12.2055748 L28.1865077,13.0973548 Z" id="Path" fill="#1A7051"></path>
                <path d="M23.1402245,2.00729734 L22.8483928,1.01099195 C22.6931439,0.480976641 22.1376275,0.177168434 21.6076122,0.332417326 C21.5909556,0.337296266 21.5744289,0.342608028 21.5580488,0.348347211 L10.5392674,4.20906141 L9.99034724,4.42728932 L19.5470069,15.0821308 L20.190376,15.7865638 L20.8336019,16.4899007 L22.3110315,18.1057594 L22.858339,18.7037211 L23.4049307,19.3023091 L27.5374007,23.8211463 C27.9101127,24.2287051 28.5426472,24.2569541 28.950206,23.8842421 C29.2313364,23.6271488 29.3419687,23.2326542 29.2355192,22.8668677 L27.0850475,15.4773272 L26.8236341,14.5826551 L26.562507,13.6887658 L23.5996307,3.57414793 L23.1402245,2.00729734 Z" id="Path" fill="#B6862E"></path>
                <path d="M7.95215978,5.9601046 L0.613654359,14.0142403 C0.265901539,14.395905 0.265897879,14.9795714 0.613645912,15.3612404 L15.3369639,31.5207419 L15.9642589,32.2090668 L16.5915539,32.8975448 L16.8584998,33.1908337 L17.0506115,33.4018363 L17.8527057,34.2826224 L18.023177,34.4692608 L18.6542415,35.1618761 L19.1888314,35.7484539 L19.7875051,36.4055191 L20.3462486,37.0187596 L20.9051317,37.6312338 L21.008482,37.7448336 C21.3801422,38.1533519 22.0126018,38.1832313 22.42112,37.8115711 C22.4442527,37.7905256 22.4663853,37.7684065 22.487445,37.7452868 L24.4417461,35.5998174 L24.5021999,35.5342335 L24.6207339,35.4041383 L25.215638,34.7512104 L25.5174879,34.4199196 L25.929076,33.9674211 L26.2257602,33.6417999 L26.4142418,33.4347815 L28.0118684,31.6820968 L28.0936834,31.5915358 L29.2369994,30.3365535 L29.8329184,29.6825116 C30.1807541,29.3007498 30.180656,28.7169103 29.8326919,28.3352655 L29.2061442,27.6480719 L22.0564057,19.8000655 L21.5233516,19.2154797 L20.9902975,18.6304342 L19.8940322,17.4272449 L19.2667372,16.7387668 L18.6394422,16.0502887 L10.9875048,7.65278698 L9.82268798,6.37435997 L9.41776137,5.9463568 C9.0382023,5.54516687 8.40528019,5.52763158 8.00409026,5.90719064 C7.98613199,5.92418066 7.96880993,5.94183077 7.95215978,5.9601046 Z M22.7194424,27.7616179 C23.9578369,27.7616179 24.9620952,28.8636732 24.9620952,30.2228543 C24.9620952,31.5828015 23.9578369,32.6842438 22.7194424,32.6842438 C21.4807687,32.6842438 20.4765104,31.5820353 20.4765104,30.2228543 C20.4765104,28.8636732 21.4806291,27.7616179 22.7194424,27.7616179 Z" id="Shape" fill="#E9044A" fill-rule="nonzero"></path>
            </g>
        </g>
    </g>
</svg>