<?xml version="1.0" encoding="UTF-8"?>
<svg width="890px" height="532px" viewBox="0 0 890 532" version="1.1" xmlns="http://www.w3.org/2000/svg" xmlns:xlink="http://www.w3.org/1999/xlink">
    <!-- Generator: Sketch 52.2 (67145) - http://www.bohemiancoding.com/sketch -->
    <title>Artboard</title>
    <desc>Created with Sketch.</desc>
    <g id="Artboard" stroke="none" stroke-width="1" fill="none" fill-rule="evenodd">
        <rect fill="#23515D" x="0" y="0" width="890" height="532"></rect>
        <circle id="Oval" stroke="#FFFFFF" stroke-width="4" fill-rule="nonzero" cx="445" cy="266" r="68"></circle>
        <rect id="Rectangle" stroke="#FFFFFF" stroke-width="4" fill-rule="nonzero" x="2" y="2" width="443" height="528"></rect>
        <rect id="Rectangle" stroke="#FFFFFF" stroke-width="4" fill-rule="nonzero" x="446" y="2" width="442" height="528"></rect>
        <rect id="Rectangle" stroke="#FFFFFF" stroke-width="4" fill-rule="nonzero" x="2" y="180" width="184" height="174"></rect>
        <rect id="Rectangle" stroke="#FFFFFF" stroke-width="4" fill-rule="nonzero" x="704" y="180" width="184" height="174"></rect>
        <path d="M649.5,328 C680.704088,328 706,300.017797 706,265.5 C706,230.982203 680.704088,203 649.5,203" id="Oval" stroke="#FFFFFF" stroke-width="4" fill-rule="nonzero" transform="translate(677.750000, 265.500000) scale(-1, 1) translate(-677.750000, -265.500000) "></path>
        <path d="M184.5,328 C215.704088,328 241,300.017797 241,265.5 C241,230.982203 215.704088,203 184.5,203" id="Oval" stroke="#FFFFFF" stroke-width="4" fill-rule="nonzero"></path>
        <path d="M1,41 C32.3333333,41 64.3333333,41 97,41 C125,41 264,100.941406 264,267.3125 C264,433.683594 125,491 97,491 C64.3333333,491 32,491 -1.13686838e-13,491" id="Path-15" stroke="#FFFFFF" stroke-width="5" fill-rule="nonzero"></path>
        <path d="M627,41 C658.333333,41 690.333333,41 723,41 C751,41 890,100.941406 890,267.3125 C890,433.683594 751,491 723,491 C690.333333,491 658,491 626,491" id="Path-15" stroke="#FFFFFF" stroke-width="5" fill-rule="nonzero" transform="translate(758.000000, 266.000000) scale(-1, 1) translate(-758.000000, -266.000000) "></path>
        <circle id="Oval" stroke="#000000" stroke-width="4" fill-rule="nonzero" cx="58" cy="267" r="8"></circle>
        <circle id="Oval" stroke="#000000" stroke-width="4" fill-rule="nonzero" cx="833" cy="267" r="8"></circle>
        <path d="M40.5,231 L40.5,301.339844" id="Path-16" stroke="#000000" stroke-width="4" fill-rule="nonzero"></path>
        <path d="M850.5,231 L850.5,301.339844" id="Path-16" stroke="#000000" stroke-width="4" fill-rule="nonzero"></path>
        <path d="M37,316 C68.4802307,316 94,293.614237 94,266 C94,238.385763 68.4802307,216 37,216" id="Oval" stroke="#FFFFFF" stroke-width="4" fill-rule="nonzero"></path>
        <path d="M797,316 C828.480231,316 854,293.614237 854,266 C854,238.385763 828.480231,216 797,216" id="Oval" stroke="#FFFFFF" stroke-width="4" fill-rule="nonzero" transform="translate(825.500000, 266.000000) scale(-1, 1) translate(-825.500000, -266.000000) "></path>
    </g>
</svg>