<?xml version="1.0" encoding="UTF-8"?>
<svg width="16px" height="18px" viewBox="0 0 16 18" version="1.1" xmlns="http://www.w3.org/2000/svg" xmlns:xlink="http://www.w3.org/1999/xlink">
    <!-- Generator: Sketch 52.2 (67145) - http://www.bohemiancoding.com/sketch -->
    <title>pencil</title>
    <desc>Created with Sketch.</desc>
    <g id="Page-1" stroke="none" stroke-width="1" fill="none" fill-rule="evenodd">
        <g id="2" transform="translate(-1466.000000, -766.000000)" fill="#505050">
            <g id="pencil" transform="translate(1466.000000, 766.000000)">
                <path d="M11.035068,0.840835039 L1.88235294,11.1376629 L1.98604298,11.3937886 L2.59691257,12.8848964 L3.53463121,13.442794 C3.75553608,13.5746606 3.93361245,13.7750219 4.05082728,14.0235145 L4.54673617,15.078448 L5.87216539,15.7657016 L6.0998552,15.8823529 L15.4094528,5.40905566 C15.746241,5.03016888 15.7462403,4.45921188 15.409451,4.08032599 L12.5298856,0.84083221 C12.1629665,0.428050415 11.530894,0.390871365 11.1181122,0.757790477 C11.0888278,0.783821202 11.0610986,0.811550531 11.035068,0.840835039 Z" id="Path"></path>
                <path d="M1.08121778,12.4510618 L0.980328175,12.8965585 L0.0183575531,17.1801806 C-0.0778395091,17.6072248 0.217790487,18 0.583808577,18 C0.630733973,18 0.680005639,17.9920918 0.729277305,17.9789114 L4.54196574,16.8981206 L4.93848534,16.7847693 L5.33500494,16.6714181 L5.64705882,16.5817916 L4.92206145,16.2074689 L4.22991186,15.8515987 C4.11259837,15.790969 4.01640131,15.6881884 3.95539829,15.5616305 L3.51899211,14.6363681 L3.41810251,14.4254821 C3.3641383,14.3094948 3.27732632,14.21196 3.17409045,14.1513302 L2.98638886,14.037979 L2.16284816,13.547669 C2.04788094,13.4791047 1.95872268,13.371052 1.90475848,13.2392482 L1.58801205,12.4616061 L1.25484174,11.6470588 L1.17506857,11.9976832 L1.08121778,12.4510618 Z" id="Path"></path>
            </g>
        </g>
    </g>
</svg>