<?xml version="1.0" encoding="UTF-8"?>
<svg width="12px" height="18px" viewBox="0 0 12 18" version="1.1" xmlns="http://www.w3.org/2000/svg" xmlns:xlink="http://www.w3.org/1999/xlink">
    <!-- Generator: Sketch 52.2 (67145) - http://www.bohemiancoding.com/sketch -->
    <title>rubbish-bin</title>
    <desc>Created with Sketch.</desc>
    <g id="Page-1" stroke="none" stroke-width="1" fill="none" fill-rule="evenodd">
        <g id="2" transform="translate(-1499.000000, -766.000000)" fill="#505050">
            <g id="rubbish-bin" transform="translate(1499.000000, 766.000000)">
                <path d="M1.5263077,17.190029 C1.54401131,17.6427312 1.89193891,18 2.31505881,18 L9.68494119,18 C10.1080611,18 10.4559887,17.6427312 10.4736923,17.190029 L11,5.29411765 L1,5.29411765 L1.5263077,17.190029 Z M7.6671531,8.24885257 C7.6671531,8.05930152 7.81070204,7.90556369 7.98781485,7.90556369 L8.50068165,7.90556369 C8.67767925,7.90556369 8.8213434,8.0592604 8.8213434,8.24885257 L8.8213434,15.0452651 C8.8213434,15.2348572 8.67779446,15.388554 8.50068165,15.388554 L7.98781485,15.388554 C7.81077884,15.388554 7.6671531,15.2349395 7.6671531,15.0452651 L7.6671531,8.24885257 Z M5.42294325,8.24885257 C5.42294325,8.05930152 5.56649219,7.90556369 5.7435666,7.90556369 L6.2564334,7.90556369 C6.433431,7.90556369 6.57705675,8.0592604 6.57705675,8.24885257 L6.57705675,15.0452651 C6.57705675,15.2348572 6.43354621,15.388554 6.2564334,15.388554 L5.7435666,15.388554 C5.56653059,15.388554 5.42294325,15.2349395 5.42294325,15.0452651 L5.42294325,8.24885257 Z M3.1786566,8.24885257 C3.1786566,8.05930152 3.32220554,7.90556369 3.49927995,7.90556369 L4.01218515,7.90556369 C4.18922116,7.90556369 4.3328085,8.0592604 4.3328085,8.24885257 L4.3328085,15.0452651 C4.3328085,15.2348572 4.18925956,15.388554 4.01218515,15.388554 L3.49927995,15.388554 C3.32224394,15.388554 3.1786566,15.2349395 3.1786566,15.0452651 L3.1786566,8.24885257 Z" id="Shape" fill-rule="nonzero"></path>
                <path d="M11.4915438,1.19676775 L8.00191821,1.19676775 L8.00191821,0.244836057 C8.00191821,0.109650155 7.9259651,0 7.83223573,0 L4.16776427,0 C4.07407432,0 3.99812121,0.109650155 3.99812121,0.244836057 L3.99812121,1.19671087 L0.508456205,1.19671087 C0.227622836,1.19671087 0,1.52520636 0,1.93042283 L0,4.23529412 L12,4.23529412 L12,1.9304797 C12,1.52526323 11.7723772,1.19676775 11.4915438,1.19676775 Z" id="Path"></path>
            </g>
        </g>
    </g>
</svg>