<?xml version="1.0" encoding="UTF-8"?>
<svg width="205px" height="35px" viewBox="0 0 205 35" version="1.1" xmlns="http://www.w3.org/2000/svg" xmlns:xlink="http://www.w3.org/1999/xlink">
    <!-- Generator: Sketch 52.2 (67145) - http://www.bohemiancoding.com/sketch -->
    <title>Group 35</title>
    <desc>Created with Sketch.</desc>
    <defs>
        <polygon id="path-1" points="0.36394142 0.6255 22.33 0.6255 22.33 7.53823479 0.36394142 7.53823479"></polygon>
        <polygon id="path-3" points="0 0.2078 11.7044 0.2078 11.7044 25.6048 0 25.6048"></polygon>
        <polygon id="path-5" points="0.1351 0.6042 17.2631 0.6042 17.2631 26 0.1351 26"></polygon>
        <polygon id="path-7" points="0.6054 0.9291 14.4944 0.9291 14.4944 17 0.6054 17"></polygon>
    </defs>
    <g id="Page-1" stroke="none" stroke-width="1" fill="none" fill-rule="evenodd">
        <g id="0-copy-4" transform="translate(-1099.000000, -317.000000)">
            <g id="Group-35" transform="translate(1099.000000, 316.000000)">
                <g id="Group-3" transform="translate(182.000000, 0.375100)">
                    <mask id="mask-2" fill="white">
                        <use xlink:href="#path-1"></use>
                    </mask>
                    <g id="Clip-2"></g>
                    <path d="M22.202,5.3995 C19.437,2.3355 15.518,0.6255 11.348,0.6255 C7.176,0.6255 3.255,2.3355 0.492,5.3995 C0.291,5.6015 0.341,5.9535 0.542,6.1035 L2.05,7.4105 C2.251,7.6115 2.554,7.5605 2.753,7.3605 C4.965,4.9975 8.08,3.6405 11.348,3.6405 C14.613,3.6405 17.729,4.9975 19.941,7.3605 C20.141,7.5605 20.443,7.5605 20.644,7.4105 L22.151,6.1035 C22.353,5.9015 22.404,5.6015 22.202,5.3995" id="Fill-1" fill="#A42066" mask="url(#mask-2)"></path>
                </g>
                <path d="M190.1307,12.4591 C190.9857,11.5541 192.1417,11.0511 193.3477,11.0511 C194.5537,11.0511 195.7087,11.5541 196.5137,12.4081 C196.6637,12.6091 196.9657,12.6091 197.1657,12.4591 L198.7757,11.2531 C199.0257,11.0511 199.0257,10.7511 198.8237,10.4981 C197.4687,8.9411 195.4587,8.0361 193.3477,8.0361 C191.2357,8.0361 189.2267,8.9411 187.8197,10.5491 C187.6177,10.7511 187.6687,11.1031 187.8697,11.3041 L189.4777,12.5101 C189.6787,12.6601 189.9797,12.6601 190.1307,12.4591" id="Fill-4" fill="#A42066"></path>
                <g id="Group-8" transform="translate(0.000000, 9.375100)">
                    <mask id="mask-4" fill="white">
                        <use xlink:href="#path-3"></use>
                    </mask>
                    <g id="Clip-7"></g>
                    <path d="M6.1834,0.7198 C5.4124,1.0628 4.8104,1.5528 4.3814,2.1918 C3.9504,2.8308 3.6584,3.5958 3.5044,4.4898 C3.3504,5.3828 3.2734,6.3798 3.2734,7.4818 L3.2734,9.7308 L-0.0006,9.7308 L-0.0006,13.1038 L3.2734,13.1038 L3.2734,25.6048 L7.2414,25.6048 L7.2414,13.1038 L10.9124,13.1038 L10.9124,9.7308 L7.2414,9.7308 L7.2414,6.8538 C7.2414,6.4118 7.2684,5.9928 7.3244,5.5968 C7.3784,5.1998 7.5004,4.8538 7.6874,4.5568 C7.8744,4.2568 8.1344,4.0198 8.4644,3.8448 C8.7954,3.6678 9.2364,3.5808 9.7874,3.5808 C10.0734,3.5808 10.3504,3.6018 10.6144,3.6468 C10.8794,3.6918 11.1544,3.7458 11.4404,3.8118 L11.7044,0.4388 C10.9334,0.2848 10.0964,0.2078 9.1914,0.2078 C7.9574,0.2078 6.9544,0.3778 6.1834,0.7198" id="Fill-6" fill="#A42066" mask="url(#mask-4)"></path>
                </g>
                <path d="M15.8289,25.4542 C15.9819,24.3082 16.4079,23.3932 17.1009,22.7102 C17.7959,22.0262 18.7389,21.6842 19.9289,21.6842 C21.1859,21.6842 22.1669,22.0202 22.8709,22.6932 C23.5769,23.3672 23.9409,24.2872 23.9629,25.4542 L15.8289,25.4542 Z M25.8649,20.9572 C25.2139,20.2292 24.4319,19.6732 23.5159,19.2872 C22.6019,18.9022 21.5929,18.7092 20.4909,18.7092 C19.2999,18.7092 18.1769,18.9072 17.1189,19.3042 C16.0599,19.7022 15.1449,20.2622 14.3739,20.9902 C13.6009,21.7182 12.9899,22.5952 12.5389,23.6192 C12.0869,24.6452 11.8609,25.7862 11.8609,27.0432 C11.8609,28.2982 12.0869,29.4372 12.5389,30.4642 C12.9899,31.4902 13.6009,32.3652 14.3739,33.0932 C15.1449,33.8212 16.0599,34.3842 17.1189,34.7802 C18.1769,35.1772 19.2999,35.3742 20.4909,35.3742 C21.7469,35.3742 22.9499,35.1322 24.0959,34.6472 C25.2429,34.1632 26.2779,33.3472 27.2039,32.2012 L24.3599,30.0512 C23.8529,30.6672 23.2639,31.1822 22.5909,31.5902 C21.9179,31.9972 21.0859,32.2012 20.0949,32.2012 C18.9699,32.2012 18.0109,31.8712 17.2179,31.2072 C16.4239,30.5482 15.9599,29.6232 15.8289,28.4312 L27.9309,28.4312 L27.9309,27.3392 C27.9309,25.9512 27.7489,24.7222 27.3859,23.6522 C27.0219,22.5832 26.5139,21.6842 25.8649,20.9572 Z" id="Fill-9" fill="#A42066"></path>
                <path d="M33.9666,25.4542 C34.1186,24.3082 34.5446,23.3932 35.2376,22.7102 C35.9336,22.0262 36.8766,21.6842 38.0656,21.6842 C39.3236,21.6842 40.3036,22.0202 41.0086,22.6932 C41.7146,23.3672 42.0786,24.2872 42.1006,25.4542 L33.9666,25.4542 Z M44.0026,20.9572 C43.3516,20.2292 42.5686,19.6732 41.6536,19.2872 C40.7376,18.9022 39.7306,18.7092 38.6286,18.7092 C37.4376,18.7092 36.3136,18.9072 35.2556,19.3042 C34.1966,19.7022 33.2816,20.2622 32.5106,20.9902 C31.7386,21.7182 31.1276,22.5952 30.6746,23.6192 C30.2236,24.6452 29.9976,25.7862 29.9976,27.0432 C29.9976,28.2982 30.2236,29.4372 30.6746,30.4642 C31.1276,31.4902 31.7386,32.3652 32.5106,33.0932 C33.2816,33.8212 34.1966,34.3842 35.2556,34.7802 C36.3136,35.1772 37.4376,35.3742 38.6286,35.3742 C39.8846,35.3742 41.0856,35.1322 42.2336,34.6472 C43.3796,34.1632 44.4146,33.3472 45.3416,32.2012 L42.4966,30.0512 C41.9896,30.6672 41.4016,31.1822 40.7276,31.5902 C40.0556,31.9972 39.2236,32.2012 38.2316,32.2012 C37.1066,32.2012 36.1486,31.8712 35.3546,31.2072 C34.5606,30.5482 34.0976,29.6232 33.9666,28.4312 L46.0686,28.4312 L46.0686,27.3392 C46.0686,25.9512 45.8856,24.7222 45.5226,23.6522 C45.1586,22.5832 44.6516,21.6842 44.0026,20.9572 Z" id="Fill-11" fill="#A42066"></path>
                <g id="Group-15" transform="translate(48.000000, 9.375100)">
                    <mask id="mask-6" fill="white">
                        <use xlink:href="#path-5"></use>
                    </mask>
                    <g id="Clip-14"></g>
                    <path d="M13.1131,19.4522 C12.9041,20.0252 12.5971,20.5322 12.1881,20.9742 C11.7801,21.4142 11.2891,21.7672 10.7171,22.0322 C10.1431,22.2962 9.4931,22.4292 8.7661,22.4292 C8.0371,22.4292 7.3871,22.2962 6.8151,22.0322 C6.2411,21.7672 5.7501,21.4142 5.3431,20.9742 C4.9351,20.5322 4.6261,20.0252 4.4181,19.4522 C4.2071,18.8802 4.1031,18.2842 4.1031,17.6662 C4.1031,17.0502 4.2071,16.4552 4.4181,15.8812 C4.6261,15.3082 4.9351,14.8022 5.3431,14.3592 C5.7501,13.9192 6.2411,13.5662 6.8151,13.3012 C7.3871,13.0372 8.0371,12.9052 8.7661,12.9052 C9.4931,12.9052 10.1431,13.0372 10.7171,13.3012 C11.2891,13.5662 11.7801,13.9192 12.1881,14.3592 C12.5971,14.8022 12.9041,15.3082 13.1131,15.8812 C13.3231,16.4552 13.4271,17.0502 13.4271,17.6662 C13.4271,18.2842 13.3231,18.8802 13.1131,19.4522 Z M13.2971,11.7482 L13.1971,11.7482 C12.9981,11.4842 12.7451,11.2132 12.4361,10.9382 C12.1281,10.6622 11.7531,10.4032 11.3111,10.1602 C10.8711,9.9172 10.3631,9.7202 9.7911,9.5652 C9.2181,9.4112 8.5561,9.3342 7.8071,9.3342 C6.6821,9.3342 5.6451,9.5492 4.6971,9.9782 C3.7511,10.4092 2.9411,11.0002 2.2681,11.7482 C1.5941,12.4982 1.0711,13.3792 0.6961,14.3922 C0.3231,15.4082 0.1351,16.4982 0.1351,17.6662 C0.1351,18.8362 0.3111,19.9272 0.6651,20.9412 C1.0161,21.9552 1.5341,22.8372 2.2191,23.5872 C2.9021,24.3362 3.7231,24.9252 4.6821,25.3542 C5.6401,25.7862 6.7371,26.0002 7.9721,26.0002 C9.0961,26.0002 10.1431,25.7782 11.1131,25.3392 C12.0831,24.8992 12.8551,24.1932 13.4271,23.2222 L13.4941,23.2222 L13.4941,25.6042 L17.2631,25.6042 L17.2631,0.6042 L13.2971,0.6042 L13.2971,11.7482 Z" id="Fill-13" fill="#A42066" mask="url(#mask-6)"></path>
                </g>
                <path d="M72.5711,23.3888 C72.9791,22.8708 73.4861,22.4628 74.0931,22.1638 C74.6981,21.8678 75.4101,21.7178 76.2261,21.7178 C77.0641,21.7178 77.7851,21.8678 78.3921,22.1638 C78.9981,22.4628 79.5771,22.8978 80.1281,23.4708 L82.3761,21.4198 C81.6051,20.5828 80.6961,19.9598 79.6481,19.5528 C78.6011,19.1448 77.5051,18.9408 76.3581,18.9408 C75.1231,18.9408 74.0051,19.1448 73.0021,19.5528 C71.9991,19.9598 71.1391,20.5278 70.4231,21.2538 C69.7061,21.9818 69.1491,22.8548 68.7531,23.8678 C68.3551,24.8808 68.1571,25.9948 68.1571,27.2078 C68.1571,28.4198 68.3551,29.5288 68.7531,30.5318 C69.1491,31.5348 69.7111,32.3948 70.4391,33.1108 C71.1671,33.8268 72.0311,34.3828 73.0351,34.7798 C74.0391,35.1768 75.1461,35.3748 76.3581,35.3748 C77.5051,35.3748 78.5901,35.1878 79.6151,34.8138 C80.6401,34.4398 81.5391,33.8208 82.3091,32.9608 L80.1941,30.8448 C79.6861,31.4188 79.1361,31.8528 78.5411,32.1508 C77.9461,32.4498 77.2281,32.5978 76.3911,32.5978 C75.6191,32.5978 74.9251,32.4598 74.3081,32.1838 C73.6901,31.9098 73.1621,31.5298 72.7201,31.0428 C72.2791,30.5588 71.9371,29.9918 71.6961,29.3388 C71.4521,28.6908 71.3331,28.0008 71.3331,27.2728 C71.3331,26.5468 71.4361,25.8468 71.6461,25.1748 C71.8551,24.5018 72.1621,23.9068 72.5711,23.3888" id="Fill-16" fill="#A42066"></path>
                <path d="M96.116,29.339 C95.874,30.014 95.532,30.585 95.091,31.06 C94.649,31.534 94.111,31.91 93.471,32.184 C92.831,32.46 92.115,32.599 91.321,32.599 C90.528,32.599 89.81,32.46 89.172,32.184 C88.533,31.91 87.992,31.534 87.553,31.06 C87.11,30.585 86.77,30.014 86.527,29.339 C86.283,28.667 86.163,27.936 86.163,27.142 C86.163,26.348 86.283,25.614 86.527,24.943 C86.77,24.27 87.11,23.697 87.553,23.224 C87.992,22.749 88.533,22.374 89.172,22.098 C89.81,21.823 90.528,21.685 91.321,21.685 C92.115,21.685 92.831,21.823 93.471,22.098 C94.111,22.374 94.649,22.749 95.091,23.224 C95.532,23.697 95.874,24.27 96.116,24.943 C96.359,25.614 96.48,26.348 96.48,27.142 C96.48,27.936 96.359,28.667 96.116,29.339 M97.241,21.322 C96.49,20.572 95.609,19.982 94.595,19.551 C93.581,19.121 92.49,18.907 91.321,18.907 C90.152,18.907 89.061,19.121 88.047,19.551 C87.033,19.982 86.152,20.572 85.402,21.322 C84.652,22.07 84.063,22.942 83.633,23.934 C83.202,24.924 82.988,25.994 82.988,27.142 C82.988,28.288 83.202,29.361 83.633,30.366 C84.063,31.369 84.652,32.238 85.402,32.977 C86.152,33.717 87.033,34.301 88.047,34.731 C89.061,35.161 90.152,35.374 91.321,35.374 C92.49,35.374 93.581,35.161 94.595,34.731 C95.609,34.301 96.49,33.717 97.241,32.977 C97.99,32.238 98.58,31.369 99.01,30.366 C99.439,29.361 99.654,28.288 99.654,27.142 C99.654,25.994 99.439,24.924 99.01,23.934 C98.58,22.942 97.99,22.07 97.241,21.322" id="Fill-18" fill="#A42066"></path>
                <path d="M114.7244,20.3302 C114.2044,19.8452 113.5984,19.4852 112.9044,19.2552 C112.2094,19.0232 111.4874,18.9082 110.7394,18.9082 C109.5254,18.9082 108.4564,19.1662 107.5314,19.6842 C106.6054,20.2032 105.9534,20.8812 105.5804,21.7182 L105.5144,21.7182 L105.5144,19.3042 L102.5374,19.3042 L102.5374,34.9782 L105.5144,34.9782 L105.5144,26.9092 C105.5144,26.0062 105.6234,25.2232 105.8454,24.5622 C106.0644,23.9002 106.3734,23.3552 106.7704,22.9262 C107.1674,22.4952 107.6304,22.1812 108.1604,21.9822 C108.6884,21.7852 109.2614,21.6852 109.8784,21.6852 C110.3414,21.6852 110.7884,21.7572 111.2184,21.9002 C111.6474,22.0432 112.0284,22.2732 112.3594,22.5942 C112.6894,22.9152 112.9544,23.3342 113.1534,23.8512 C113.3504,24.3692 113.4504,24.9912 113.4504,25.7202 L113.4504,34.9782 L116.4264,34.9782 L116.4264,24.8922 C116.4264,23.8562 116.2724,22.9592 115.9624,22.1972 C115.6544,21.4372 115.2404,20.8142 114.7244,20.3302" id="Fill-20" fill="#A42066"></path>
                <path d="M129.8348,27.3068 C129.4268,26.9528 128.9418,26.6668 128.3798,26.4458 C127.8158,26.2268 127.2168,26.0388 126.5778,25.8858 C126.2468,25.8178 125.8498,25.7418 125.3888,25.6538 C124.9238,25.5668 124.4878,25.4338 124.0798,25.2568 C123.6728,25.0798 123.3198,24.8488 123.0228,24.5618 C122.7258,24.2768 122.5758,23.9008 122.5758,23.4378 C122.5758,22.8648 122.8358,22.4288 123.3538,22.1318 C123.8718,21.8328 124.4828,21.6838 125.1888,21.6838 C125.9388,21.6838 126.5708,21.8328 127.0908,22.1318 C127.6068,22.4288 128.0438,22.7988 128.3968,23.2398 L130.7108,21.4868 C130.1378,20.5608 129.3658,19.8998 128.3968,19.5008 C127.4268,19.1048 126.4118,18.9078 125.3548,18.9078 C124.6268,18.9078 123.9028,19.0068 123.1878,19.2058 C122.4708,19.4048 121.8328,19.7018 121.2698,20.0988 C120.7078,20.4948 120.2548,20.9958 119.9148,21.6028 C119.5708,22.2078 119.4018,22.9198 119.4018,23.7358 C119.4018,24.4848 119.5338,25.1138 119.7988,25.6198 C120.0638,26.1258 120.4158,26.5458 120.8568,26.8758 C121.2978,27.2088 121.8038,27.4728 122.3778,27.6698 C122.9498,27.8688 123.5568,28.0458 124.1958,28.2008 C124.5268,28.2658 124.9068,28.3498 125.3378,28.4478 C125.7678,28.5468 126.1748,28.6788 126.5618,28.8428 C126.9458,29.0088 127.2768,29.2368 127.5518,29.5228 C127.8278,29.8098 127.9668,30.1708 127.9668,30.6138 C127.9668,30.9448 127.8718,31.2358 127.6858,31.4908 C127.4968,31.7428 127.2548,31.9528 126.9578,32.1188 C126.6598,32.2838 126.3178,32.4048 125.9328,32.4828 C125.5478,32.5608 125.1668,32.5978 124.7918,32.5978 C123.9328,32.5978 123.2048,32.4098 122.6088,32.0358 C122.0138,31.6598 121.4738,31.2318 120.9888,30.7448 L118.7408,32.5978 C119.5128,33.6568 120.3888,34.3838 121.3698,34.7808 C122.3508,35.1768 123.4898,35.3748 124.7918,35.3748 C125.5638,35.3748 126.3288,35.2868 127.0908,35.1108 C127.8498,34.9338 128.5288,34.6478 129.1228,34.2498 C129.7188,33.8548 130.2038,33.3408 130.5778,32.7148 C130.9528,32.0848 131.1408,31.3308 131.1408,30.4478 C131.1408,29.7198 131.0248,29.1058 130.7938,28.5968 C130.5618,28.0888 130.2408,27.6608 129.8348,27.3068" id="Fill-22" fill="#A42066"></path>
                <path d="M140.8533,32.5988 C140.2793,32.5988 139.8443,32.4938 139.5463,32.2838 C139.2493,32.0738 139.0283,31.7978 138.8853,31.4568 C138.7413,31.1158 138.6593,30.7298 138.6363,30.2978 C138.6153,29.8698 138.6043,29.4348 138.6043,28.9928 L138.6043,21.8828 L142.8693,21.8828 L142.8693,19.3038 L138.6043,19.3038 L138.6043,14.9078 L135.6273,14.9078 L135.6273,19.3038 L132.1883,19.3038 L132.1883,21.8828 L135.6273,21.8828 L135.6273,30.0508 C135.6273,30.6908 135.6553,31.3248 135.7093,31.9528 C135.7643,32.5798 135.9423,33.1488 136.2393,33.6558 C136.5373,34.1628 136.9993,34.5768 137.6283,34.8948 C138.2573,35.2148 139.1433,35.3738 140.2903,35.3738 C140.5993,35.3738 141.0353,35.3358 141.5963,35.2598 C142.1593,35.1828 142.6173,35.0448 142.9683,34.8468 L142.9683,32.1338 C142.6603,32.3108 142.3193,32.4318 141.9443,32.4978 C141.5683,32.5648 141.2063,32.5988 140.8533,32.5988" id="Fill-24" fill="#A42066"></path>
                <path d="M151.6824,19.1222 C151.1974,19.2672 150.7504,19.4582 150.3434,19.7012 C149.9344,19.9432 149.5664,20.2352 149.2354,20.5772 C148.9054,20.9192 148.6404,21.2992 148.4404,21.7182 L148.3744,21.7182 L148.3744,19.3042 L145.3994,19.3042 L145.3994,34.9782 L148.3744,34.9782 L148.3744,27.1082 C148.3744,25.3892 148.7604,24.1212 149.5334,23.3062 C150.3044,22.4902 151.4174,22.0822 152.8714,22.0822 C153.1144,22.0822 153.3574,22.1052 153.6004,22.1482 C153.8414,22.1922 154.0844,22.2472 154.3274,22.3122 L154.4594,19.1062 C154.0624,18.9742 153.6214,18.9082 153.1374,18.9082 C152.6524,18.9082 152.1654,18.9782 151.6824,19.1222" id="Fill-26" fill="#A42066"></path>
                <g id="Group-30" transform="translate(156.000000, 18.375100)">
                    <mask id="mask-8" fill="white">
                        <use xlink:href="#path-7"></use>
                    </mask>
                    <g id="Clip-29"></g>
                    <path d="M11.5184,8.9981 C11.5184,9.9021 11.4084,10.6841 11.1874,11.3451 C10.9664,12.0071 10.6594,12.5521 10.2614,12.9821 C9.8664,13.4111 9.4024,13.7271 8.8734,13.9251 C8.3434,14.1231 7.7694,14.2231 7.1534,14.2231 C6.6894,14.2231 6.2434,14.1501 5.8144,14.0071 C5.3844,13.8651 5.0044,13.6321 4.6734,13.3121 C4.3414,12.9931 4.0784,12.5751 3.8774,12.0571 C3.6814,11.5391 3.5824,10.9151 3.5824,10.1871 L3.5824,0.9291 L0.6054,0.9291 L0.6054,11.0161 C0.6054,12.0511 0.7594,12.9491 1.0704,13.7101 C1.3774,14.4711 1.7904,15.0931 2.3084,15.5781 C2.8264,16.0631 3.4254,16.4221 4.1104,16.6531 C4.7934,16.8841 5.5224,17.0001 6.2924,17.0001 C7.5064,17.0001 8.5764,16.7411 9.5004,16.2231 C10.4264,15.7051 11.0774,15.0281 11.4514,14.1881 L11.5184,14.1881 L11.5184,16.6031 L14.4944,16.6031 L14.4944,0.9291 L11.5184,0.9291 L11.5184,8.9981 Z" id="Fill-28" fill="#A42066" mask="url(#mask-8)"></path>
                </g>
                <path d="M177.8621,23.3888 C178.2701,22.8708 178.7761,22.4628 179.3831,22.1638 C179.9881,21.8678 180.6991,21.7178 181.5161,21.7178 C182.3521,21.7178 183.0741,21.8678 183.6801,22.1638 C184.2871,22.4628 184.8671,22.8978 185.4181,23.4708 L187.6661,21.4198 C186.8931,20.5828 185.9851,19.9598 184.9381,19.5528 C183.8911,19.1448 182.7951,18.9408 181.6481,18.9408 C180.4131,18.9408 179.2941,19.1448 178.2911,19.5528 C177.2891,19.9598 176.4281,20.5278 175.7121,21.2538 C174.9961,21.9818 174.4391,22.8548 174.0421,23.8678 C173.6441,24.8808 173.4471,25.9948 173.4471,27.2078 C173.4471,28.4198 173.6441,29.5288 174.0421,30.5318 C174.4391,31.5348 175.0011,32.3948 175.7271,33.1108 C176.4571,33.8268 177.3211,34.3828 178.3241,34.7798 C179.3271,35.1768 180.4341,35.3748 181.6481,35.3748 C182.7951,35.3748 183.8811,35.1878 184.9051,34.8138 C185.9301,34.4398 186.8281,33.8208 187.5991,32.9608 L185.4821,30.8448 C184.9751,31.4188 184.4251,31.8528 183.8301,32.1508 C183.2361,32.4498 182.5181,32.5978 181.6801,32.5978 C180.9081,32.5978 180.2141,32.4598 179.5981,32.1838 C178.9791,31.9098 178.4511,31.5298 178.0091,31.0428 C177.5681,30.5588 177.2281,29.9918 176.9851,29.3388 C176.7431,28.6908 176.6221,28.0008 176.6221,27.2728 C176.6221,26.5468 176.7251,25.8468 176.9361,25.1748 C177.1441,24.5018 177.4531,23.9068 177.8621,23.3888" id="Fill-31" fill="#A42066"></path>
                <path d="M197.0653,32.5988 C196.4913,32.5988 196.0553,32.4938 195.7573,32.2838 C195.4613,32.0738 195.2403,31.7978 195.0983,31.4568 C194.9533,31.1158 194.8713,30.7298 194.8493,30.2978 C194.8283,29.8698 194.8163,29.4348 194.8163,28.9928 L194.8163,21.8828 L199.0823,21.8828 L199.0823,19.3038 L194.8163,19.3038 L194.8163,14.9078 L191.8393,14.9078 L191.8393,19.3038 L188.4003,19.3038 L188.4003,21.8828 L191.8393,21.8828 L191.8393,30.0508 C191.8393,30.6908 191.8673,31.3248 191.9213,31.9528 C191.9773,32.5798 192.1533,33.1488 192.4523,33.6558 C192.7503,34.1628 193.2113,34.5768 193.8403,34.8948 C194.4693,35.2148 195.3563,35.3738 196.5033,35.3738 C196.8113,35.3738 197.2463,35.3358 197.8093,35.2598 C198.3713,35.1828 198.8273,35.0448 199.1803,34.8468 L199.1803,32.1338 C198.8723,32.3108 198.5313,32.4318 198.1563,32.4978 C197.7813,32.5648 197.4163,32.5988 197.0653,32.5988" id="Fill-33" fill="#A42066"></path>
            </g>
        </g>
    </g>
</svg>