<?xml version="1.0" encoding="utf-8"?>
<!-- Generator: Adobe Illustrator 24.2.0, SVG Export Plug-In . SVG Version: 6.00 Build 0)  -->
<svg version="1.1" id="Layer_1" xmlns="http://www.w3.org/2000/svg" xmlns:xlink="http://www.w3.org/1999/xlink" x="0px" y="0px"
	 viewBox="0 0 106.67 100.59" style="enable-background:new 0 0 106.67 100.59;" xml:space="preserve">
<style type="text/css">
	.st0{fill:#4177F6;}
</style>
<g id="Group_1455" transform="translate(-201.167 -79.492)">
	<g id="Group_1446">
		<g id="Group_1445">
			<path id="Path_1335" class="st0" d="M254.5,157.78c-6.54,0.01-13.05-0.88-19.35-2.64c-0.06-0.02-0.11-0.04-0.16-0.06
				c-1.95-0.74-2.28-1.88-2.28-4.95v-23.27c0-1.95,1.58-3.53,3.53-3.53h3.47v-6.76c-0.01-8.17,6.61-14.8,14.78-14.8
				c8.17-0.01,14.8,6.61,14.8,14.78c0,0.01,0,0.02,0,0.03v6.76h3.47c1.95,0,3.53,1.58,3.53,3.53v23.27c0,3.07-0.34,4.23-2.34,4.97
				h-0.01c-0.03,0.02-0.07,0.03-0.1,0.04C267.54,156.9,261.04,157.79,254.5,157.78z M236.24,124.33c-1.4,0-2.53,1.13-2.53,2.53
				v23.27c0,3.13,0.41,3.55,1.68,4.03c12.48,3.47,25.66,3.48,38.14,0.03l0.05-0.02c1.36-0.5,1.71-0.96,1.71-4.04v-23.27
				c0-1.4-1.13-2.53-2.53-2.53h-3.97c-0.28,0-0.5-0.22-0.5-0.5v-7.26c0-7.62-6.17-13.79-13.79-13.79c-7.62,0-13.79,6.17-13.79,13.79
				v7.26c0,0.28-0.22,0.5-0.5,0.5L236.24,124.33z M273.73,154.65L273.73,154.65z M254.5,147.74c-1.45,0-2.63-1.17-2.63-2.62v-3.41
				c-1.98-1.45-2.41-4.24-0.96-6.22c1.45-1.98,4.24-2.41,6.22-0.96c1.98,1.45,2.41,4.24,0.96,6.22c-0.27,0.37-0.59,0.69-0.96,0.96
				v3.41c0,0.69-0.28,1.36-0.76,1.85C255.87,147.47,255.2,147.75,254.5,147.74L254.5,147.74z M254.5,134.67
				c-1.91,0-3.45,1.55-3.45,3.45c0,1.18,0.6,2.27,1.59,2.9c0.14,0.09,0.23,0.25,0.23,0.42v3.67c0,0.9,0.73,1.63,1.63,1.63
				s1.63-0.73,1.63-1.63v-3.67c0-0.17,0.09-0.33,0.23-0.42c1.6-1.03,2.07-3.16,1.04-4.77C256.77,135.27,255.68,134.67,254.5,134.67
				L254.5,134.67z M263.79,124.33h-18.58c-0.28,0-0.5-0.22-0.5-0.5v-7.26c0-5.41,4.38-9.79,9.79-9.79c5.41,0,9.79,4.38,9.79,9.79
				v7.26C264.29,124.11,264.07,124.33,263.79,124.33z M245.71,123.33h17.58v-6.76c0-4.85-3.94-8.79-8.79-8.79
				c-4.85,0-8.79,3.94-8.79,8.79l0,0V123.33z"/>
		</g>
	</g>
	<g id="Group_1450">
		<g id="Group_1447">
			<path id="Path_1336" class="st0" d="M204.96,124.55c-0.02,0-0.04,0-0.06,0c-0.27-0.03-0.47-0.28-0.44-0.55
				c0.38-3.35,1.1-6.65,2.15-9.85c0.08-0.26,0.36-0.42,0.62-0.34c0.26,0.08,0.42,0.36,0.34,0.62c0,0.01-0.01,0.02-0.01,0.03
				c-1.02,3.14-1.73,6.37-2.1,9.65C205.43,124.36,205.22,124.55,204.96,124.55z M299.27,108.31c-0.19,0-0.36-0.11-0.45-0.28
				c-1.19-2.43-2.58-4.75-4.16-6.95c-0.16-0.22-0.11-0.54,0.12-0.7s0.54-0.11,0.7,0.12l0,0c1.61,2.24,3.02,4.62,4.24,7.09
				c0.12,0.25,0.02,0.55-0.23,0.67C299.43,108.3,299.35,108.31,299.27,108.31z M211.13,105.66c-0.28,0-0.5-0.22-0.5-0.5
				c0-0.09,0.02-0.17,0.07-0.25c1.67-2.93,3.62-5.68,5.84-8.22c0.18-0.21,0.5-0.23,0.71-0.05c0.21,0.18,0.23,0.5,0.05,0.71l0,0
				c-2.17,2.49-4.09,5.19-5.72,8.06C211.48,105.57,211.31,105.66,211.13,105.66z M288.48,93.8c-0.13,0-0.25-0.05-0.34-0.13
				c-2.42-2.25-5.05-4.25-7.87-5.98c-0.24-0.14-0.31-0.45-0.16-0.69c0.14-0.24,0.45-0.31,0.69-0.16l0,0c2.87,1.76,5.56,3.8,8.02,6.1
				c0.2,0.19,0.21,0.51,0.02,0.71C288.75,93.73,288.62,93.79,288.48,93.8L288.48,93.8z M224.18,90.7c-0.28,0-0.5-0.22-0.51-0.49
				c0-0.16,0.07-0.31,0.2-0.41c2.67-2.05,5.54-3.82,8.57-5.3c0.25-0.12,0.55-0.02,0.67,0.23c0.12,0.25,0.02,0.55-0.23,0.67
				c-2.97,1.45-5.78,3.19-8.4,5.2C224.4,90.66,224.29,90.7,224.18,90.7z M271.55,83.42c-0.06,0-0.12-0.01-0.17-0.03
				c-3.1-1.13-6.31-1.94-9.58-2.43c-0.27-0.04-0.46-0.29-0.42-0.57c0.04-0.27,0.3-0.46,0.57-0.42c3.33,0.49,6.61,1.32,9.78,2.47
				c0.26,0.09,0.39,0.38,0.3,0.64C271.95,83.28,271.76,83.42,271.55,83.42L271.55,83.42z M242.04,82c-0.28,0-0.5-0.23-0.5-0.5
				c0-0.23,0.15-0.43,0.37-0.48c3.26-0.84,6.6-1.35,9.96-1.52c0.27-0.01,0.51,0.2,0.52,0.47c0.01,0.28-0.2,0.51-0.47,0.52
				c0,0,0,0,0,0c-3.3,0.17-6.57,0.67-9.77,1.49C242.12,81.99,242.08,82,242.04,82z"/>
		</g>
		<g id="Group_1449">
			<g id="Group_1448">
				<path id="Path_1337" class="st0" d="M209.12,123.19l-4.49,6.6l-3.47-7.18L209.12,123.19z"/>
			</g>
		</g>
	</g>
	<g id="Group_1454">
		<g id="Group_1451">
			<path id="Path_1338" class="st0" d="M257.1,180.08c-0.28,0.01-0.51-0.21-0.51-0.49c-0.01-0.28,0.21-0.51,0.49-0.51
				c3.3-0.17,6.57-0.67,9.77-1.49c0.27-0.07,0.54,0.09,0.61,0.36c0.07,0.27-0.09,0.54-0.36,0.61l0,0c-3.26,0.84-6.6,1.35-9.96,1.52
				L257.1,180.08z M247.13,179.6c-0.02,0-0.05,0-0.07-0.01c-3.33-0.5-6.61-1.32-9.78-2.48c-0.26-0.09-0.39-0.38-0.3-0.64
				c0.09-0.26,0.38-0.39,0.64-0.3c3.1,1.13,6.31,1.94,9.58,2.43c0.27,0.04,0.46,0.3,0.42,0.57
				C247.58,179.42,247.37,179.6,247.13,179.6L247.13,179.6z M276.33,175.13c-0.28,0-0.5-0.22-0.5-0.5c0-0.19,0.11-0.37,0.28-0.45
				c2.97-1.45,5.78-3.19,8.4-5.2c0.22-0.17,0.53-0.14,0.7,0.08c0.17,0.22,0.14,0.53-0.08,0.7c0,0-0.01,0.01-0.01,0.01
				c-2.67,2.05-5.54,3.83-8.57,5.3C276.48,175.11,276.41,175.13,276.33,175.13L276.33,175.13z M228.46,172.81
				c-0.09,0-0.18-0.03-0.26-0.07c-2.87-1.76-5.56-3.8-8.02-6.1c-0.2-0.19-0.21-0.5-0.03-0.71s0.5-0.21,0.71-0.03
				c2.42,2.25,5.05,4.26,7.87,5.99c0.23,0.15,0.31,0.45,0.16,0.69C228.79,172.73,228.63,172.82,228.46,172.81L228.46,172.81z
				 M292.09,163.04c-0.28,0-0.5-0.22-0.5-0.5c0-0.12,0.04-0.24,0.12-0.33c2.17-2.49,4.09-5.19,5.72-8.06
				c0.14-0.24,0.45-0.31,0.69-0.17c0.23,0.14,0.31,0.43,0.18,0.66c-1.67,2.93-3.62,5.68-5.84,8.22
				C292.37,162.98,292.24,163.04,292.09,163.04L292.09,163.04z M213.92,159.27c-0.16,0-0.31-0.08-0.41-0.21
				c-1.6-2.24-3.02-4.61-4.24-7.09c-0.12-0.25-0.02-0.55,0.23-0.67c0.25-0.12,0.55-0.02,0.67,0.23c1.19,2.43,2.58,4.75,4.16,6.95
				c0.16,0.22,0.11,0.54-0.12,0.7C214.13,159.24,214.03,159.27,213.92,159.27L213.92,159.27z M301.91,145.77
				c-0.28,0-0.5-0.22-0.5-0.5c0-0.05,0.01-0.1,0.02-0.15c1.02-3.14,1.73-6.37,2.11-9.65c0.02-0.28,0.26-0.48,0.54-0.46
				s0.48,0.26,0.46,0.54c0,0.01,0,0.02,0,0.03c-0.38,3.35-1.1,6.65-2.15,9.85C302.31,145.63,302.12,145.77,301.91,145.77
				L301.91,145.77z"/>
		</g>
		<g id="Group_1453">
			<g id="Group_1452">
				<path id="Path_1339" class="st0" d="M299.88,136.38l4.48-6.6l3.47,7.18L299.88,136.38z"/>
			</g>
		</g>
	</g>
</g>
</svg>
