<?xml version="1.0" encoding="utf-8"?>
<!-- Generator: Adobe Illustrator 24.2.0, SVG Export Plug-In . SVG Version: 6.00 Build 0)  -->
<svg version="1.1" id="Layer_1" xmlns="http://www.w3.org/2000/svg" xmlns:xlink="http://www.w3.org/1999/xlink" x="0px" y="0px"
	 viewBox="0 0 222.05 158.97" style="enable-background:new 0 0 222.05 158.97;" xml:space="preserve">
<style type="text/css">
	.st0{opacity:0.65;}
	.st1{fill:#4177F6;}
	.st2{opacity:0.45;}
</style>
<g id="Group_1494" transform="translate(-653 -382)" class="st0">
	<g id="Group_1463" transform="translate(551.277 315.87)">
		<g id="Group_1459">
			<g id="Group_1458" class="st0">
				<g id="Path_1340">
					<g id="Group_1467">
						<path id="Path_1361" class="st1" d="M283.1,141.81c-0.1,0-0.19-0.03-0.28-0.08c-1.62-1.07-3.31-2.26-5.02-3.53
							c-1.96-1.45-4.07-3.11-6.25-4.94c-5.21-4.36-10.17-9-14.87-13.91c-0.35-0.37-0.71-0.73-1.05-1.1
							c-0.19-0.2-0.18-0.52,0.02-0.71s0.52-0.18,0.71,0.02c0.35,0.37,0.69,0.73,1.05,1.1c4.67,4.88,9.61,9.49,14.79,13.83
							c2.17,1.81,4.26,3.46,6.2,4.9c1.7,1.26,3.37,2.44,4.97,3.5c0.23,0.15,0.29,0.46,0.14,0.69
							C283.42,141.73,283.26,141.81,283.1,141.81L283.1,141.81z"/>
					</g>
				</g>
				<g id="Path_1341">
					<g id="Group_1468">
						<path id="Path_1362" class="st1" d="M299.95,149.06c-3.95,0-9.81-2.49-17.13-7.32c-0.23-0.16-0.28-0.47-0.12-0.7
							c0.15-0.22,0.45-0.28,0.67-0.14c9.71,6.42,17.12,8.69,19.83,6.09c0.78-0.83,1.2-1.92,1.18-3.05
							c0.43-8.4-10.97-26.39-27.72-43.8c-19.6-20.37-40.58-33.34-45.79-28.32c-0.12,0.12-0.23,0.24-0.33,0.38
							c-4.27,5.66,7.07,25.59,25.82,45.36c0.19,0.2,0.18,0.52-0.02,0.71s-0.52,0.18-0.71-0.02c-19.39-20.46-30.53-40.51-25.9-46.65
							c0.13-0.18,0.28-0.36,0.45-0.51c5.8-5.58,26.54,6.87,47.21,28.35c16.93,17.59,28.44,35.89,28,44.51
							c0.02,1.39-0.51,2.73-1.47,3.74C302.83,148.65,301.4,149.14,299.95,149.06z"/>
					</g>
				</g>
				<g id="Path_1342">
					<g id="Group_1469">
						<path id="Path_1363" class="st1" d="M276.57,128.37c-1.69,0-3.92-1.1-5.74-2.2c-4.1-2.64-7.86-5.78-11.19-9.35
							c-6.69-6.95-12.62-15.91-10.42-18.82c0.06-0.08,0.13-0.16,0.21-0.24c2.74-2.63,11.65,3.68,18.65,10.95
							c6.58,6.84,11.06,14,10.89,17.4c0.01,0.61-0.23,1.2-0.65,1.64l-0.02,0.02C277.82,128.19,277.2,128.41,276.57,128.37z
							 M277.94,127.41L277.94,127.41z M251.16,98.15c-0.38-0.03-0.75,0.09-1.04,0.34c-0.03,0.03-0.06,0.07-0.09,0.11
							c-1.39,1.84,2.43,9.32,10.34,17.54c3.27,3.5,6.96,6.58,10.99,9.18c3.08,1.87,5.4,2.52,6.23,1.74c0.24-0.26,0.38-0.6,0.37-0.96
							c0.16-3.13-4.3-10.13-10.61-16.69C260.4,102.19,253.91,98.15,251.16,98.15z"/>
					</g>
				</g>
				<g id="Path_1343">
					<g id="Group_1470">
						<path id="Path_1364" class="st1" d="M242.26,87.37h-0.02c-1.1-0.02-2.91-1.5-4.12-2.76c-0.35-0.36-3.35-3.55-2.41-4.8
							c0.03-0.04,0.07-0.08,0.11-0.12c1.19-1.14,4.42,2.15,4.79,2.53c1.23,1.28,2.65,3.16,2.6,4.26c0,0.23-0.09,0.46-0.26,0.62
							l-0.01,0.01C242.74,87.29,242.5,87.38,242.26,87.37z M242.57,86.76L242.57,86.76z M242.19,86.46L242.19,86.46z M236.51,80.46
							c0.47,1.33,1.27,2.51,2.32,3.45c0.9,1.08,2.05,1.93,3.35,2.45c-0.47-1.33-1.26-2.52-2.31-3.45
							C238.97,81.83,237.82,80.99,236.51,80.46L236.51,80.46z"/>
					</g>
				</g>
				<g id="Path_1344">
					<g id="Group_1471">
						<path id="Path_1365" class="st1" d="M242.9,101.73c-0.61-0.07-1.2-0.3-1.69-0.67c-0.23-0.15-0.3-0.46-0.15-0.69
							s0.46-0.3,0.69-0.15c0,0,0,0,0,0c0.32,0.24,0.69,0.41,1.08,0.51c-0.47-1.32-1.27-2.5-2.31-3.43c-1.48-1.54-2.86-2.41-3.4-2.45
							c-0.28-0.02-0.48-0.26-0.47-0.53c0,0,0,0,0,0c0.03-0.27,0.26-0.47,0.53-0.47c1.11,0.07,2.88,1.53,4.05,2.75
							c1.23,1.28,2.65,3.15,2.59,4.25c0,0.23-0.09,0.45-0.25,0.62C243.39,101.64,243.15,101.73,242.9,101.73z M242.92,100.73
							L242.92,100.73C242.92,100.73,242.93,100.73,242.92,100.73L242.92,100.73z"/>
					</g>
				</g>
				<g id="Path_1345">
					<g id="Group_1472">
						<path id="Path_1366" class="st1" d="M258.82,93.48h-0.02c-1.1-0.02-2.91-1.5-4.12-2.76c-0.35-0.36-3.35-3.55-2.41-4.8
							c0.01-0.01,0.06-0.07,0.07-0.08c1.23-1.18,4.46,2.11,4.83,2.49c1.23,1.28,2.65,3.16,2.59,4.26c0,0.23-0.09,0.45-0.25,0.62
							l-0.02,0.02C259.3,93.4,259.06,93.49,258.82,93.48z M259.13,92.88L259.13,92.88z M258.75,92.58L258.75,92.58z M253.07,86.58
							c0.47,1.33,1.27,2.51,2.32,3.45c0.9,1.08,2.05,1.92,3.35,2.45C257.61,89.91,255.6,87.81,253.07,86.58z"/>
					</g>
				</g>
				<g id="Path_1346">
					<g id="Group_1473">
						<path id="Path_1367" class="st1" d="M276.9,109.13c-1.45,0-3.84-2.44-4.15-2.76c-0.35-0.36-3.35-3.55-2.41-4.8
							c0.03-0.04,0.07-0.08,0.11-0.12c1.19-1.14,4.42,2.15,4.79,2.53c1.23,1.28,2.65,3.16,2.59,4.26c0,0.23-0.09,0.45-0.25,0.62
							l-0.02,0.02C277.38,109.05,277.14,109.14,276.9,109.13z M277.21,108.53L277.21,108.53z M276.83,108.23L276.83,108.23z
							 M271.15,102.23c0.47,1.33,1.27,2.51,2.32,3.45c0.9,1.08,2.05,1.92,3.35,2.45C275.69,105.56,273.68,103.47,271.15,102.23
							L271.15,102.23z"/>
					</g>
				</g>
				<g id="Path_1347">
					<g id="Group_1474">
						<path id="Path_1368" class="st1" d="M290.26,127.18c-0.55-0.05-1.07-0.24-1.52-0.56c-0.97-0.62-1.85-1.36-2.64-2.2
							c-0.35-0.36-3.35-3.55-2.41-4.8c0.03-0.03,0.06-0.07,0.09-0.1c1.2-1.16,4.44,2.14,4.8,2.51c1.23,1.28,2.65,3.16,2.59,4.26
							c0,0.23-0.09,0.45-0.25,0.62l-0.02,0.02C290.73,127.1,290.5,127.19,290.26,127.18z M290.56,126.57L290.56,126.57z
							 M290.17,126.27L290.17,126.27z M284.5,120.27c0.47,1.33,1.27,2.51,2.32,3.45c0.9,1.08,2.05,1.92,3.35,2.45
							c-0.47-1.33-1.26-2.52-2.31-3.45C286.96,121.64,285.81,120.8,284.5,120.27L284.5,120.27z"/>
					</g>
				</g>
				<g id="Path_1348">
					<g id="Group_1475">
						<path id="Path_1369" class="st1" d="M292.72,143.76c-1.45,0-3.84-2.44-4.15-2.76c-0.35-0.36-3.35-3.55-2.41-4.8
							c0.01-0.02,0.07-0.08,0.09-0.1c1.21-1.16,4.44,2.14,4.81,2.51c1.23,1.28,2.65,3.16,2.59,4.26c0,0.23-0.09,0.45-0.25,0.62
							l-0.02,0.02C293.2,143.68,292.96,143.77,292.72,143.76z M293.03,143.15L293.03,143.15z M292.65,142.85L292.65,142.85z
							 M286.98,136.86c0.47,1.33,1.26,2.52,2.31,3.45c0.9,1.08,2.05,1.92,3.35,2.45c-0.47-1.33-1.26-2.52-2.31-3.45
							C289.43,138.23,288.28,137.38,286.98,136.86L286.98,136.86z"/>
					</g>
				</g>
				<g id="Path_1349">
					<g id="Group_1476">
						<path id="Path_1370" class="st1" d="M278.11,138.3c-0.11,0-0.21-0.04-0.3-0.1c-1.96-1.45-4.07-3.11-6.25-4.94
							c-0.05-0.04-0.09-0.09-0.12-0.14c-0.53-0.96-0.63-1.63-0.31-2.06c0.04-0.05,0.09-0.1,0.14-0.14c1.16-1.11,4.39,2.18,4.76,2.56
							c1.23,1.27,2.65,3.15,2.6,4.26c-0.01,0.07-0.02,0.14-0.04,0.21C278.53,138.15,278.33,138.3,278.11,138.3L278.11,138.3z
							 M277.63,137.67l0.48,0.13L277.63,137.67z M272.28,132.56c1.67,1.4,3.29,2.69,4.84,3.87c-0.52-0.82-1.12-1.57-1.8-2.26
							c-0.9-1.08-2.05-1.92-3.35-2.45C272.01,132.02,272.12,132.3,272.28,132.56L272.28,132.56z"/>
					</g>
				</g>
				<g id="Path_1350">
					<g id="Group_1477">
						<path id="Path_1371" class="st1" d="M304.89,144.42c-0.28,0-0.5-0.22-0.5-0.5c0-0.01,0-0.02,0-0.03
							c0.25-4.89-3.76-13.57-11.01-23.8c-10.05-13.84-21.93-26.25-35.33-36.88c-13.09-10.21-23.76-14.68-27.18-11.4
							c-0.12,0.12-0.23,0.24-0.33,0.38c-0.16,0.23-0.47,0.28-0.7,0.12c-0.14-0.1-0.22-0.26-0.21-0.43c0.08-1.54,0.72-3,1.79-4.11
							c4.4-4.23,15.96-0.12,30.2,10.71c6.5,5.01,12.6,10.5,18.27,16.43c6.66,6.85,12.68,14.29,17.97,22.24
							c8.53,13.06,11.29,23.2,7.37,27.14C305.15,144.37,305.02,144.43,304.89,144.42z M234.12,69.75c5.28,0,13.97,4.43,24.55,12.68
							c13.47,10.69,25.43,23.17,35.53,37.09c6.79,9.59,10.69,17.62,11.16,22.9c2.1-4.25-0.95-13.45-8.32-24.72
							c-5.26-7.9-11.24-15.3-17.86-22.1c-5.63-5.89-11.7-11.35-18.16-16.32c-13.61-10.35-24.94-14.59-28.88-10.79
							c-0.56,0.59-0.99,1.29-1.24,2.07C231.88,69.99,232.99,69.71,234.12,69.75z"/>
					</g>
				</g>
				<g id="Path_1351">
					<g id="Group_1478">
						<path id="Path_1372" class="st1" d="M297.46,117.92c-0.17,0-0.32-0.08-0.42-0.22c-5.27-7.9-11.24-15.3-17.86-22.1
							c-5.63-5.89-11.7-11.34-18.15-16.32c-0.22-0.17-0.26-0.48-0.09-0.7c0.02-0.02,0.03-0.04,0.05-0.06
							c7.9-7.41,22.63-4.82,32.82,5.77c7.89,8.2,11.14,19.23,8.08,27.44c-0.1,0.26-0.38,0.39-0.64,0.29s-0.39-0.38-0.29-0.64
							c2.93-7.86-0.24-18.46-7.87-26.4c-9.63-10.01-23.38-12.67-30.98-6.13c6.32,4.91,12.26,10.27,17.79,16.05
							c6.66,6.85,12.68,14.29,17.97,22.24c0.15,0.23,0.09,0.54-0.14,0.69c0,0,0,0,0,0C297.65,117.89,297.55,117.92,297.46,117.92z"
							/>
					</g>
				</g>
				<g id="Path_1352">
					<g id="Group_1479">
						<path id="Path_1373" class="st1" d="M285.46,83.21c-0.12,0-0.24-0.04-0.33-0.13c-0.76-0.68-1.57-1.3-2.43-1.86
							c-0.23-0.15-0.3-0.46-0.16-0.69c0.15-0.23,0.46-0.3,0.69-0.16c0,0,0.01,0,0.01,0.01c0.9,0.58,1.75,1.24,2.55,1.95
							c0.21,0.18,0.22,0.5,0.04,0.71C285.74,83.15,285.61,83.21,285.46,83.21L285.46,83.21z"/>
					</g>
				</g>
				<g id="Path_1353">
					<g id="Group_1480">
						<path id="Path_1374" class="st1" d="M279.97,79.75c-0.07,0-0.14-0.01-0.2-0.04c-2.59-1.1-5.47-1.31-8.2-0.61
							c-0.27,0.07-0.54-0.09-0.61-0.36c-0.07-0.27,0.09-0.54,0.36-0.61c2.94-0.76,6.05-0.53,8.85,0.65c0.25,0.11,0.37,0.4,0.26,0.66
							C280.35,79.63,280.17,79.75,279.97,79.75L279.97,79.75z"/>
					</g>
				</g>
			</g>
			<g id="Path_1354" class="st0">
				<g id="Group_1481">
					<path id="Path_1375" class="st1" d="M299.96,163.85c-3.85-3.58-0.12-9.05-0.12-9.05c-5.46,4.55-9.17,0.41-9.17,0.41
						s4.95,2.43,0.51,9.77C291.19,164.98,295.39,160.54,299.96,163.85"/>
				</g>
			</g>
			<g id="Path_1355" class="st2">
				<g id="Group_1482">
					<path id="Path_1376" class="st1" d="M113.44,199.22c-4.86,1.15-7.21-4.68-7.21-4.68c0.71,6.72-4.51,7.45-4.51,7.45
						s4.53-2.63,7.98,4.76C109.71,206.75,108.42,201.09,113.44,199.22"/>
				</g>
			</g>
			<g id="Path_1356" class="st0">
				<g id="Group_1483">
					<path id="Path_1377" class="st1" d="M219.97,84.34c-4.94,1.79-8.11-4.02-8.11-4.02c1.56,6.94-3.81,8.35-3.81,8.35
						s4.41-3.3,8.93,4C216.98,92.67,214.94,86.9,219.97,84.34"/>
				</g>
			</g>
			<g id="Ellipse_272" class="st2">
				<g id="Group_1484">
					<path id="Path_1378" class="st1" d="M319.95,113.5c-2.11,0-3.82-1.71-3.82-3.82c0-2.11,1.71-3.82,3.82-3.82
						c2.11,0,3.82,1.71,3.82,3.82C323.77,111.78,322.06,113.49,319.95,113.5z M319.95,106.85c-1.56,0-2.82,1.26-2.82,2.82
						c0,1.56,1.26,2.82,2.82,2.82c1.56,0,2.82-1.26,2.82-2.82C322.77,108.12,321.51,106.86,319.95,106.85z"/>
				</g>
			</g>
			<g id="Ellipse_273" class="st2">
				<g id="Group_1485">
					<path id="Path_1379" class="st1" d="M108.58,113.08c-2.11,0-3.82-1.71-3.82-3.82c0-2.11,1.71-3.82,3.82-3.82
						c2.11,0,3.82,1.71,3.82,3.82c0,0,0,0,0,0C112.4,111.37,110.69,113.08,108.58,113.08z M108.58,106.44
						c-1.56,0-2.82,1.26-2.82,2.82c0,1.56,1.26,2.82,2.82,2.82c1.56,0,2.82-1.26,2.82-2.82c0,0,0,0,0,0
						C111.4,107.7,110.14,106.44,108.58,106.44z"/>
				</g>
			</g>
		</g>
		<g id="Path_1292">
			<g id="Group_1486">
				<path id="Path_1380" class="st1" d="M224.67,225.1c-1.85,0-3.62-0.73-4.93-2.04l-26.14-26.1c-0.09-0.09-0.15-0.22-0.15-0.35
					v-4.65l-1.19-1.24c-17.14,14.37-42.69,12.12-57.06-5.02c-14.37-17.14-12.12-42.69,5.02-57.06
					c17.14-14.37,42.69-12.12,57.06,5.02c12.62,15.05,12.62,36.99,0,52.04l1.24,1.19h4.65c0.13,0,0.26,0.05,0.35,0.15l26.09,26.15
					c2.72,2.72,2.73,7.14,0,9.87C228.3,224.36,226.53,225.1,224.67,225.1L224.67,225.1z M194.45,196.4l26,25.95
					c2.36,2.31,6.15,2.27,8.46-0.09c2.28-2.33,2.28-6.05,0-8.37l-25.94-26h-4.65c-0.13,0-0.25-0.05-0.35-0.14l-1.72-1.66
					c-0.19-0.18-0.2-0.48-0.03-0.68c14.21-16.55,12.31-41.49-4.25-55.7c-16.55-14.21-41.49-12.31-55.7,4.25
					c-14.21,16.55-12.31,41.49,4.25,55.7c14.8,12.7,36.65,12.7,51.45,0c0.2-0.17,0.5-0.16,0.68,0.03l1.66,1.72
					c0.09,0.09,0.14,0.22,0.14,0.35L194.45,196.4z M166.38,192.61h-0.09c-18.13-0.11-32.74-14.9-32.63-33.04
					c0.11-17.99,14.68-32.55,32.68-32.63h0.04c18.13,0.1,32.75,14.88,32.65,33.02C198.94,177.95,184.37,192.51,166.38,192.61z
					 M166.3,191.61h0.09c17.58-0.1,31.75-14.43,31.66-32.01c-0.1-17.44-14.21-31.56-31.66-31.66h-0.04
					c-17.58,0.09-31.76,14.41-31.68,31.99C134.74,177.38,148.85,191.5,166.3,191.61L166.3,191.61z"/>
			</g>
		</g>
		<g id="Path_1357">
			<g id="Group_1487">
				<path id="Path_1381" class="st1" d="M290.68,91.16"/>
			</g>
		</g>
		<g id="Group_1460" class="st0">
			<g id="Line_2">
				<g id="Group_1488">
					<path id="Path_1382" class="st1" d="M243.83,225.1c-0.06,0-0.11-0.01-0.16-0.03c-0.26-0.09-0.4-0.38-0.31-0.64l27.63-78.96
						c0.08-0.26,0.36-0.41,0.62-0.33c0.26,0.08,0.41,0.36,0.33,0.62c0,0.01-0.01,0.03-0.01,0.04l-27.62,78.96
						C244.23,224.97,244.04,225.1,243.83,225.1z"/>
				</g>
			</g>
			<g id="Line_3">
				<g id="Group_1489">
					<path id="Path_1383" class="st1" d="M169.72,109.84c-0.28,0-0.5-0.23-0.5-0.5c0-0.25,0.18-0.45,0.42-0.49l60.41-9.32
						c0.27-0.04,0.53,0.15,0.57,0.42c0.04,0.27-0.14,0.53-0.42,0.57c0,0,0,0,0,0l-60.41,9.32
						C169.77,109.84,169.75,109.84,169.72,109.84z"/>
				</g>
			</g>
			<g id="Line_4">
				<g id="Group_1490">
					<path id="Path_1384" class="st1" d="M222.32,150.72c-0.28,0-0.5-0.22-0.5-0.5c0-0.14,0.06-0.28,0.17-0.38l28.16-24.53
						c0.2-0.19,0.52-0.18,0.71,0.02c0.19,0.2,0.18,0.52-0.02,0.71c-0.01,0.01-0.02,0.02-0.03,0.02l-28.16,24.53
						C222.56,150.67,222.44,150.72,222.32,150.72z"/>
				</g>
			</g>
		</g>
		<g id="Group_1462">
			<g id="Group_1461">
				<g id="Path_1358">
					<g id="Group_1491">
						<path id="Path_1385" class="st1" d="M156.15,156.84c-1.79,0-3.25-1.46-3.24-3.25s1.46-3.25,3.25-3.24
							c1.79,0,3.25,1.46,3.24,3.25C159.4,155.39,157.95,156.84,156.15,156.84L156.15,156.84z"/>
					</g>
				</g>
				<g id="Path_1359">
					<g id="Group_1492">
						<path id="Path_1386" class="st1" d="M176.44,156.84c-1.79,0-3.25-1.46-3.25-3.25s1.46-3.25,3.25-3.25s3.25,1.46,3.25,3.25
							C179.69,155.39,178.24,156.84,176.44,156.84L176.44,156.84z"/>
					</g>
				</g>
			</g>
			<g id="Path_1360">
				<g id="Group_1493">
					<path id="Path_1387" class="st1" d="M185.94,173.16c-0.11,0-0.21-0.04-0.3-0.1c-11.43-8.69-27.25-8.69-38.68,0
						c-0.22,0.16-0.54,0.11-0.7-0.11c-0.16-0.22-0.11-0.51,0.09-0.68c11.79-8.96,28.1-8.96,39.89,0c0.22,0.17,0.27,0.48,0.1,0.7
						C186.25,173.1,186.1,173.17,185.94,173.16L185.94,173.16z"/>
				</g>
			</g>
		</g>
	</g>
</g>
</svg>
